<svg id="svg" version="1.1" xmlns="http://www.w3.org/2000/svg" xmlns:xlink="http://www.w3.org/1999/xlink" width="400" height="400" viewBox="0, 0, 400,400"><g id="svgg"><path id="path0" d="M200.880 25.680 C 200.529 26.031,200.400 29.193,200.400 37.410 C 200.400 48.653,200.399 48.661,199.474 49.530 L 198.548 50.400 162.523 50.400 C 134.187 50.400,126.411 50.507,126.091 50.900 C 125.832 51.217,125.581 59.944,125.402 74.800 C 125.187 92.765,125.002 98.389,124.608 99.014 C 124.172 99.705,124.208 99.970,124.847 100.759 C 125.543 101.618,125.600 102.511,125.600 112.569 L 125.600 123.450 124.478 124.525 L 123.356 125.600 112.532 125.600 C 102.507 125.600,101.637 125.544,100.742 124.841 C 99.899 124.177,99.681 124.152,99.012 124.641 C 97.622 125.657,76.641 125.441,75.600 124.400 C 74.838 123.638,74.800 123.067,74.800 112.480 C 74.800 104.364,74.670 101.230,74.320 100.880 C 73.511 100.071,51.848 100.209,51.029 101.029 C 50.471 101.586,50.400 104.333,50.400 125.229 C 50.400 148.267,50.382 148.818,49.600 149.600 C 48.838 150.362,48.267 150.400,37.680 150.400 C 29.564 150.400,26.430 150.530,26.080 150.880 C 25.377 151.583,25.396 173.336,26.100 173.909 C 26.417 174.168,35.279 174.424,50.353 174.611 C 72.795 174.889,74.146 174.946,74.853 175.653 C 75.547 176.347,75.600 177.194,75.600 187.520 C 75.600 195.636,75.730 198.770,76.080 199.120 C 76.777 199.817,173.223 199.817,173.920 199.120 C 174.270 198.770,174.400 195.632,174.400 187.502 L 174.400 176.364 175.382 175.382 L 176.364 174.400 199.902 174.400 C 217.676 174.400,223.558 174.282,223.920 173.920 C 224.270 173.570,224.400 170.452,224.400 162.395 C 224.400 151.833,224.436 151.313,225.216 150.475 L 226.031 149.600 249.716 149.594 C 262.742 149.591,273.628 149.443,273.906 149.266 C 274.300 149.017,274.389 146.364,274.306 137.373 L 274.200 125.800 262.724 125.694 L 251.248 125.588 250.424 124.540 C 249.613 123.509,249.600 123.116,249.600 100.026 C 249.600 82.308,249.482 76.442,249.120 76.080 C 248.770 75.730,245.632 75.600,237.502 75.600 L 226.364 75.600 225.382 74.618 L 224.400 73.636 224.400 62.447 L 224.400 51.258 225.454 50.429 C 227.062 49.164,248.339 49.139,249.600 50.400 C 250.362 51.162,250.400 51.733,250.400 62.320 C 250.400 70.436,250.530 73.570,250.880 73.920 C 251.383 74.423,272.680 74.644,275.050 74.170 L 276.200 73.941 275.995 62.670 C 275.824 53.237,275.678 51.115,275.095 49.650 C 274.251 47.526,274.027 26.678,274.843 26.174 C 275.151 25.983,275.121 25.796,274.743 25.556 C 273.841 24.985,201.454 25.106,200.880 25.680 M99.514 26.074 C 100.204 26.764,100.210 48.430,99.520 49.120 C 99.147 49.493,101.758 49.600,111.271 49.600 C 121.146 49.600,123.590 49.494,123.957 49.051 C 124.280 48.663,124.382 45.192,124.306 37.151 L 124.200 25.800 111.614 25.694 C 101.741 25.611,99.133 25.693,99.514 26.074 M224.311 100.223 C 225.493 101.051,225.732 123.411,224.571 124.571 C 224.030 125.113,222.383 125.200,212.651 125.200 C 204.403 125.200,201.231 125.329,200.880 125.680 C 200.529 126.031,200.400 129.189,200.400 137.391 C 200.400 146.909,200.305 148.758,199.777 149.511 C 198.884 150.786,176.522 150.922,175.259 149.659 C 174.538 148.938,174.506 148.938,174.056 149.659 C 173.420 150.678,151.644 150.817,150.806 149.807 C 150.372 149.284,150.216 149.284,149.468 149.807 C 148.181 150.709,126.981 150.682,125.689 149.777 C 124.507 148.949,124.268 126.589,125.429 125.429 C 125.970 124.887,127.617 124.800,137.349 124.800 C 145.597 124.800,148.769 124.671,149.120 124.320 C 149.470 123.970,149.600 120.819,149.600 112.646 C 149.600 101.703,149.620 101.431,150.470 100.526 L 151.339 99.600 187.381 99.600 C 219.354 99.600,223.522 99.670,224.311 100.223 M299.400 112.786 C 299.400 124.368,299.427 124.786,300.200 125.185 C 302.315 126.278,325.607 125.823,324.300 124.715 C 324.245 124.669,318.890 124.534,312.400 124.415 L 300.600 124.200 300.494 112.500 C 300.413 103.540,300.272 100.800,299.894 100.800 C 299.513 100.800,299.400 103.542,299.400 112.786 M299.959 149.850 C 299.436 150.479,299.280 174.440,299.800 174.267 C 300.051 174.183,300.240 169.875,300.306 162.711 C 300.388 153.848,300.530 151.190,300.939 150.850 C 301.287 150.562,305.334 150.376,312.800 150.306 C 319.904 150.240,324.183 150.051,324.267 149.800 C 324.464 149.208,300.451 149.257,299.959 149.850 M350.896 150.395 C 350.532 150.978,350.400 154.158,350.400 162.341 C 350.400 172.996,350.363 173.539,349.576 174.540 L 348.752 175.588 337.276 175.694 L 325.800 175.800 325.694 187.151 C 325.618 195.192,325.720 198.663,326.043 199.051 C 326.409 199.492,328.710 199.600,337.787 199.600 C 352.019 199.600,350.400 197.976,350.400 212.251 C 350.400 220.420,350.530 223.570,350.880 223.920 C 351.583 224.623,373.341 224.604,373.896 223.900 C 374.645 222.952,374.917 151.545,374.176 150.487 C 373.252 149.168,351.716 149.082,350.896 150.395 M212.500 224.306 C 201.921 224.402,199.534 224.629,201.433 225.357 C 202.425 225.738,223.335 225.629,223.949 225.240 C 225.334 224.363,223.423 224.207,212.500 224.306 M324.509 225.631 C 324.044 225.795,323.991 225.947,324.327 226.155 C 325.007 226.575,325.001 248.439,324.320 249.120 C 323.635 249.805,301.565 249.805,300.880 249.120 C 300.315 248.555,300.177 273.029,300.740 273.917 C 301.077 274.448,301.218 274.448,337.483 273.783 L 348.766 273.576 348.983 261.788 C 349.546 231.231,349.586 226.568,349.291 226.117 C 348.958 225.610,325.856 225.157,324.509 225.631 M250.886 226.074 C 250.127 226.833,250.188 273.326,250.949 273.957 C 251.337 274.280,254.808 274.382,262.849 274.306 L 274.200 274.200 274.200 250.000 L 274.200 225.800 262.786 225.694 C 254.243 225.615,251.250 225.710,250.886 226.074 M25.889 250.000 C 26.053 250.330,26.245 255.775,26.316 262.100 L 26.445 273.600 37.623 273.600 L 48.800 273.600 48.804 262.900 C 48.807 257.015,48.913 251.570,49.041 250.800 L 49.272 249.400 37.432 249.400 C 27.041 249.400,25.628 249.473,25.889 250.000 M75.733 249.800 C 75.948 250.444,99.200 250.549,99.200 249.906 C 99.200 249.509,96.648 249.400,87.400 249.400 C 79.711 249.400,75.646 249.539,75.733 249.800 M200.800 250.094 C 200.800 250.491,203.352 250.600,212.600 250.600 C 220.289 250.600,224.354 250.461,224.267 250.200 C 224.052 249.556,200.800 249.451,200.800 250.094 M124.312 287.400 C 124.413 298.086,124.634 300.451,125.357 298.567 C 126.188 296.402,125.554 275.600,124.657 275.600 C 124.322 275.600,124.230 278.750,124.312 287.400 M149.867 275.867 C 149.331 276.402,149.559 299.200,150.100 299.200 C 150.489 299.200,150.600 296.573,150.600 287.400 C 150.600 280.910,150.495 275.600,150.367 275.600 C 150.238 275.600,150.013 275.720,149.867 275.867 M174.312 287.400 C 174.413 298.086,174.634 300.451,175.357 298.567 C 176.188 296.402,175.554 275.600,174.657 275.600 C 174.322 275.600,174.230 278.750,174.312 287.400 M275.867 275.867 C 275.355 276.378,275.559 298.599,276.080 299.120 C 276.889 299.929,298.152 299.791,298.971 298.971 C 299.791 298.152,299.929 276.889,299.120 276.080 C 298.599 275.559,276.378 275.355,275.867 275.867 M225.800 300.000 C 225.360 300.189,219.748 300.356,213.329 300.372 C 203.252 300.396,201.571 300.486,201.025 301.032 C 200.462 301.596,200.405 304.245,200.497 325.732 L 200.600 349.800 212.162 349.906 C 226.887 350.042,225.200 351.660,225.200 337.400 C 225.200 323.189,223.599 324.800,237.717 324.800 C 248.237 324.800,248.792 324.763,249.186 324.026 C 249.918 322.658,249.731 301.566,248.977 300.489 C 248.316 299.544,227.864 299.113,225.800 300.000 M76.092 300.900 C 75.623 301.478,74.937 348.141,75.377 349.529 C 75.790 350.828,98.216 350.908,99.387 349.614 C 100.212 348.703,99.943 301.932,99.107 300.900 C 98.801 300.522,95.999 300.400,87.600 300.400 C 79.202 300.400,76.399 300.522,76.092 300.900 M301.029 301.029 C 300.209 301.848,300.071 323.111,300.880 323.920 C 301.230 324.270,304.345 324.400,312.391 324.400 C 326.842 324.400,325.200 322.735,325.200 337.390 C 325.200 343.849,325.309 349.419,325.443 349.767 C 325.859 350.852,348.397 350.708,349.387 349.614 C 350.363 348.536,349.918 301.975,348.922 300.980 C 348.011 300.068,301.942 300.115,301.029 301.029 " stroke="none" fill="#f0c449" fill-rule="evenodd"></path><path id="path1" d="M75.867 25.867 C 75.355 26.378,75.559 48.599,76.080 49.120 C 76.765 49.805,98.835 49.805,99.520 49.120 C 100.205 48.435,100.205 26.765,99.520 26.080 C 98.999 25.559,76.378 25.355,75.867 25.867 M274.900 26.040 C 274.032 26.943,274.204 47.408,275.098 49.650 C 275.683 51.117,275.829 53.208,275.998 62.600 L 276.200 73.800 287.400 73.800 L 298.600 73.800 298.800 62.310 C 299.059 47.405,297.405 49.059,312.310 48.800 L 323.800 48.600 323.907 37.627 C 323.965 31.591,323.875 26.523,323.707 26.364 C 323.092 25.785,275.449 25.468,274.900 26.040 M75.867 75.867 C 75.355 76.378,75.559 98.999,76.080 99.520 C 76.889 100.329,98.552 100.191,99.371 99.371 C 100.191 98.552,100.329 76.889,99.520 76.080 C 98.999 75.559,76.378 75.355,75.867 75.867 M100.629 100.629 C 99.468 101.789,99.707 124.149,100.889 124.977 C 101.641 125.504,103.454 125.600,112.614 125.600 L 123.450 125.600 124.525 124.478 L 125.600 123.356 125.600 112.567 C 125.600 103.450,125.504 101.640,124.977 100.889 C 124.149 99.707,101.789 99.468,100.629 100.629 M276.043 100.949 C 275.720 101.337,275.618 104.808,275.694 112.849 L 275.800 124.200 287.600 124.200 L 299.400 124.200 299.506 112.849 C 299.582 104.808,299.480 101.337,299.157 100.949 C 298.792 100.508,296.518 100.400,287.600 100.400 C 278.682 100.400,276.408 100.508,276.043 100.949 M150.645 126.227 C 150.154 127.508,150.371 149.411,150.880 149.920 C 151.624 150.664,173.337 150.599,173.957 149.852 C 174.280 149.463,174.381 145.889,174.306 137.552 L 174.200 125.800 162.545 125.694 C 152.178 125.600,150.863 125.659,150.645 126.227 M300.494 137.494 L 300.600 149.400 311.600 149.512 C 317.650 149.574,323.008 149.525,323.506 149.403 L 324.412 149.182 324.306 137.491 L 324.200 125.800 312.294 125.694 L 300.388 125.588 300.494 137.494 M276.094 150.730 C 275.700 150.982,275.611 153.637,275.694 162.627 L 275.800 174.200 287.491 174.306 L 299.182 174.412 299.403 173.506 C 299.525 173.008,299.574 167.650,299.512 161.600 L 299.400 150.600 288.000 150.503 C 281.730 150.449,276.372 150.551,276.094 150.730 M200.843 200.949 C 200.520 201.337,200.418 204.808,200.494 212.849 L 200.600 224.200 212.400 224.200 L 224.200 224.200 224.306 212.849 C 224.382 204.808,224.280 201.337,223.957 200.949 C 223.592 200.508,221.318 200.400,212.400 200.400 C 203.482 200.400,201.208 200.508,200.843 200.949 M25.781 226.105 C 25.674 226.383,25.635 231.738,25.694 238.005 L 25.800 249.400 37.151 249.506 C 45.192 249.582,48.663 249.480,49.051 249.157 C 49.799 248.537,49.864 226.824,49.120 226.080 C 48.411 225.371,26.054 225.395,25.781 226.105 M75.867 225.867 C 75.221 226.512,75.573 249.104,76.233 249.357 C 77.508 249.846,98.612 249.628,99.120 249.120 C 99.805 248.435,99.805 226.765,99.120 226.080 C 98.599 225.559,76.378 225.355,75.867 225.867 M300.880 226.080 C 300.195 226.765,300.195 248.435,300.880 249.120 C 301.565 249.805,323.635 249.805,324.320 249.120 C 325.005 248.435,325.005 226.765,324.320 226.080 C 323.969 225.729,320.809 225.600,312.600 225.600 C 304.391 225.600,301.231 225.729,300.880 226.080 M126.182 226.503 C 126.074 226.783,126.035 231.869,126.093 237.806 L 126.200 248.600 150.000 248.600 L 173.800 248.600 173.800 237.400 L 173.800 226.200 150.089 226.097 C 131.186 226.015,126.338 226.097,126.182 226.503 M200.880 250.880 C 200.136 251.624,200.201 273.337,200.949 273.957 C 201.337 274.280,204.808 274.382,212.849 274.306 L 224.200 274.200 224.306 262.627 C 224.389 253.636,224.300 250.983,223.906 250.734 C 223.044 250.187,201.436 250.324,200.880 250.880 M100.886 276.074 C 100.137 276.823,100.196 298.532,100.949 299.157 C 101.337 299.480,104.808 299.582,112.849 299.506 L 124.200 299.400 124.200 287.600 L 124.200 275.800 112.786 275.694 C 104.243 275.615,101.250 275.710,100.886 276.074 M150.645 276.227 C 150.098 277.654,150.376 298.682,150.949 299.157 C 151.337 299.480,154.808 299.582,162.849 299.506 L 174.200 299.400 174.200 287.600 L 174.200 275.800 162.545 275.694 C 152.178 275.600,150.863 275.659,150.645 276.227 M50.880 350.880 C 50.195 351.565,50.195 373.235,50.880 373.920 C 51.505 374.545,73.667 374.606,74.826 373.986 C 75.564 373.591,75.600 373.031,75.600 361.986 L 75.600 350.400 63.480 350.400 C 54.587 350.400,51.232 350.528,50.880 350.880 M176.043 350.949 C 175.720 351.337,175.618 354.808,175.694 362.849 L 175.800 374.200 187.315 374.306 C 194.799 374.375,199.104 374.265,199.615 373.992 C 200.576 373.477,200.862 351.822,199.920 350.880 C 199.176 350.136,176.664 350.200,176.043 350.949 M300.880 350.880 C 300.195 351.565,300.195 373.235,300.880 373.920 C 301.505 374.545,323.667 374.606,324.826 373.986 C 325.564 373.591,325.600 373.031,325.600 361.986 L 325.600 350.400 313.480 350.400 C 304.587 350.400,301.232 350.528,300.880 350.880 " stroke="none" fill="#dbd8e1" fill-rule="evenodd"></path><path id="path2" d="M75.429 25.429 C 74.359 26.498,74.495 49.408,75.574 49.986 C 76.491 50.477,98.472 50.489,100.000 50.000 C 100.552 49.823,95.513 49.662,88.749 49.640 C 78.894 49.608,76.409 49.493,76.043 49.051 C 75.720 48.663,75.618 45.192,75.694 37.151 L 75.800 25.800 88.600 25.600 C 95.640 25.490,100.950 25.267,100.400 25.105 C 98.221 24.464,76.107 24.750,75.429 25.429 M274.400 25.091 C 274.400 25.353,282.946 25.594,298.900 25.783 C 312.375 25.943,323.538 26.204,323.707 26.363 C 323.875 26.523,323.965 31.591,323.907 37.627 L 323.800 48.600 312.310 48.800 C 297.405 49.059,299.059 47.405,298.800 62.310 L 298.600 73.800 286.814 73.906 C 279.763 73.970,274.869 74.171,274.634 74.406 C 274.375 74.665,278.440 74.800,286.458 74.800 C 297.787 74.800,298.724 74.747,299.338 74.069 C 299.920 73.425,300.000 72.011,300.000 62.330 C 300.000 48.441,298.437 50.000,312.358 50.000 C 319.103 50.000,323.547 49.842,324.026 49.586 C 324.996 49.067,325.254 26.470,324.300 25.688 C 323.612 25.124,274.400 24.535,274.400 25.091 M351.280 26.080 C 350.929 26.431,350.800 29.609,350.800 37.880 C 350.800 52.424,352.424 50.800,337.880 50.800 C 329.609 50.800,326.431 50.929,326.080 51.280 C 325.387 51.973,325.387 98.427,326.080 99.120 C 326.431 99.471,329.603 99.600,337.851 99.600 C 347.583 99.600,349.230 99.687,349.771 100.229 C 350.329 100.786,350.401 103.681,350.413 125.929 C 350.423 146.862,350.513 150.884,350.957 150.300 C 351.800 149.190,373.297 149.233,374.077 150.346 C 374.508 150.962,374.581 140.181,374.493 88.878 C 374.416 44.227,374.261 26.514,373.944 26.132 C 373.336 25.400,352.009 25.351,351.280 26.080 M200.176 37.600 C 200.176 43.870,200.232 46.435,200.299 43.300 C 200.367 40.165,200.367 35.035,200.299 31.900 C 200.232 28.765,200.176 31.330,200.176 37.600 M231.900 49.899 C 235.035 49.967,240.165 49.967,243.300 49.899 C 246.435 49.832,243.870 49.776,237.600 49.776 C 231.330 49.776,228.765 49.832,231.900 49.899 M163.129 50.300 C 169.799 50.361,180.599 50.361,187.129 50.300 C 193.658 50.238,188.200 50.188,175.000 50.188 C 161.800 50.188,156.458 50.238,163.129 50.300 M75.280 75.280 C 74.929 75.631,74.800 78.848,74.800 87.254 C 74.800 93.644,74.629 99.197,74.415 99.760 C 74.169 100.408,74.169 100.857,74.415 101.009 C 74.647 101.152,74.800 105.700,74.800 112.424 C 74.800 126.781,73.252 125.200,87.311 125.200 C 101.605 125.200,100.000 126.793,100.000 112.606 C 100.000 102.822,100.087 101.170,100.629 100.629 C 101.170 100.087,102.822 100.000,112.606 100.000 C 126.825 100.000,125.208 101.722,125.172 86.611 C 125.155 79.756,125.003 75.328,124.800 75.800 C 124.611 76.240,124.444 81.576,124.428 87.657 C 124.403 97.354,124.322 98.744,123.767 98.957 C 122.493 99.446,101.788 99.228,101.280 98.720 C 100.930 98.370,100.800 95.241,100.800 87.143 C 100.800 76.128,100.793 76.041,99.911 75.423 C 98.750 74.609,76.082 74.478,75.280 75.280 M99.520 76.080 C 100.329 76.889,100.191 98.552,99.371 99.371 C 98.552 100.191,76.889 100.329,76.080 99.520 C 75.559 98.999,75.355 76.378,75.867 75.867 C 76.378 75.355,98.999 75.559,99.520 76.080 M169.070 99.900 C 179.008 99.959,195.388 99.959,205.470 99.900 C 215.551 99.840,207.420 99.792,187.400 99.792 C 167.380 99.792,159.131 99.840,169.070 99.900 M275.655 100.283 C 274.785 100.995,274.781 101.076,274.890 113.000 L 275.000 125.000 286.800 125.200 C 293.290 125.310,298.825 125.546,299.100 125.724 C 299.852 126.210,299.820 148.520,299.066 149.145 C 298.710 149.441,294.632 149.623,286.766 149.694 L 275.000 149.800 274.894 161.866 C 274.801 172.441,274.867 174.010,275.423 174.566 C 276.108 175.251,298.269 175.554,299.867 174.900 C 300.270 174.735,295.020 174.510,288.200 174.400 L 275.800 174.200 275.694 162.627 C 275.611 153.636,275.700 150.983,276.094 150.734 C 276.372 150.557,281.739 150.409,288.020 150.406 C 296.362 150.402,299.569 150.271,299.920 149.920 C 300.625 149.215,300.606 125.380,299.900 124.924 C 299.625 124.746,294.090 124.510,287.600 124.400 L 275.800 124.200 275.694 112.849 C 275.616 104.510,275.714 101.345,276.064 100.922 C 276.464 100.441,278.474 100.368,288.451 100.474 C 296.391 100.558,300.228 100.467,299.961 100.200 C 299.144 99.383,276.661 99.460,275.655 100.283 M98.720 101.280 C 99.228 101.788,99.446 122.493,98.957 123.767 C 98.640 124.593,76.498 124.738,75.680 123.920 C 74.975 123.215,74.995 101.350,75.700 101.065 C 76.853 100.600,98.240 100.800,98.720 101.280 M149.694 112.420 C 149.632 119.990,149.453 123.987,149.165 124.275 C 148.852 124.588,148.852 124.785,149.165 124.978 C 149.858 125.407,149.763 148.966,149.067 149.545 C 148.713 149.838,144.780 150.025,137.367 150.100 L 126.200 150.213 137.411 150.307 C 152.052 150.429,150.398 152.010,150.406 137.877 C 150.409 131.675,150.557 126.372,150.734 126.094 C 150.983 125.700,153.636 125.611,162.627 125.694 L 174.200 125.800 174.400 137.400 C 174.510 143.780,174.746 149.225,174.924 149.500 C 175.463 150.334,176.077 150.091,175.614 149.226 C 175.357 148.746,175.200 144.209,175.200 137.255 C 175.200 127.608,175.113 125.970,174.571 125.429 C 174.030 124.887,172.361 124.799,162.471 124.794 C 156.162 124.791,150.778 124.647,150.506 124.474 C 150.138 124.240,149.984 121.227,149.900 112.580 L 149.787 101.000 149.694 112.420 M249.776 112.400 C 249.776 118.670,249.832 121.235,249.899 118.100 C 249.967 114.965,249.967 109.835,249.899 106.700 C 249.832 103.565,249.776 106.130,249.776 112.400 M324.412 137.600 C 324.412 146.139,324.545 150.394,324.800 150.000 C 325.028 149.647,325.188 144.539,325.188 137.600 C 325.188 130.661,325.028 125.553,324.800 125.200 C 324.545 124.806,324.412 129.061,324.412 137.600 M50.177 137.400 C 50.177 143.780,50.232 146.334,50.299 143.076 C 50.367 139.817,50.366 134.597,50.299 131.476 C 50.231 128.354,50.176 131.020,50.177 137.400 M200.176 137.600 C 200.176 143.870,200.232 146.435,200.299 143.300 C 200.367 140.165,200.367 135.035,200.299 131.900 C 200.232 128.765,200.176 131.330,200.176 137.600 M350.176 162.400 C 350.176 168.670,350.232 171.235,350.299 168.100 C 350.367 164.965,350.367 159.835,350.299 156.700 C 350.232 153.565,350.176 156.130,350.176 162.400 M200.470 200.526 C 199.415 201.648,199.084 223.141,200.100 224.532 C 200.503 225.084,200.576 222.924,200.478 213.376 C 200.388 204.717,200.482 201.383,200.827 200.968 C 201.462 200.203,223.160 200.120,223.920 200.880 C 224.272 201.232,224.402 204.572,224.406 213.380 C 224.410 221.288,224.545 225.195,224.800 224.800 C 225.732 223.358,225.285 200.905,224.311 200.223 C 222.637 199.050,201.605 199.317,200.470 200.526 M25.280 225.280 C 24.579 225.981,24.598 249.170,25.300 250.131 C 25.704 250.684,25.800 248.412,25.800 238.308 L 25.800 225.800 37.151 225.694 C 45.490 225.616,48.655 225.714,49.078 226.064 C 49.559 226.464,49.632 228.474,49.526 238.451 C 49.442 246.391,49.533 250.228,49.800 249.961 C 50.542 249.220,50.550 226.888,49.809 225.757 L 49.182 224.800 37.471 224.800 C 28.896 224.800,25.631 224.929,25.280 225.280 M75.429 225.429 C 74.748 226.109,74.450 248.280,75.100 249.867 C 75.265 250.270,75.490 245.020,75.600 238.200 L 75.800 225.800 87.151 225.694 C 95.490 225.616,98.655 225.714,99.078 226.064 C 99.559 226.464,99.632 228.474,99.526 238.451 C 99.442 246.391,99.533 250.228,99.800 249.961 C 100.542 249.220,100.550 226.888,99.809 225.757 L 99.182 224.800 87.619 224.800 C 77.642 224.800,75.971 224.886,75.429 225.429 M300.014 225.574 C 299.508 226.519,299.495 248.625,300.000 249.800 C 300.203 250.271,300.355 245.663,300.372 238.580 C 300.392 229.797,300.529 226.431,300.880 226.080 C 301.232 225.728,304.547 225.600,313.304 225.600 C 321.164 225.600,325.163 225.463,325.000 225.200 C 324.465 224.334,300.486 224.693,300.014 225.574 M125.680 225.680 C 124.785 226.575,125.019 248.512,125.931 249.338 C 127.117 250.411,173.164 250.345,174.138 249.269 C 174.988 248.330,175.156 226.516,174.320 225.680 C 173.627 224.987,126.373 224.987,125.680 225.680 M173.800 237.400 L 173.800 248.600 150.000 248.600 L 126.200 248.600 126.093 237.806 C 126.035 231.869,126.074 226.783,126.182 226.503 C 126.338 226.097,131.186 226.015,150.089 226.097 L 173.800 226.200 173.800 237.400 M199.990 250.626 C 199.455 252.032,199.477 273.423,200.014 274.426 C 200.410 275.166,200.978 275.200,212.814 275.200 L 225.200 275.200 225.200 263.033 C 225.200 256.341,225.065 250.536,224.900 250.133 C 224.735 249.730,224.510 254.980,224.400 261.800 L 224.200 274.200 212.849 274.306 C 204.510 274.384,201.345 274.286,200.922 273.936 C 200.441 273.536,200.368 271.523,200.474 261.529 C 200.543 254.968,200.551 249.600,200.490 249.600 C 200.430 249.600,200.205 250.062,199.990 250.626 M100.014 275.574 C 99.394 276.733,99.455 299.295,100.080 299.920 C 100.781 300.621,123.570 300.602,124.532 299.900 C 125.084 299.497,122.924 299.424,113.376 299.522 C 104.717 299.612,101.383 299.518,100.968 299.173 C 100.203 298.538,100.120 276.840,100.880 276.080 C 101.232 275.728,104.572 275.598,113.380 275.594 C 121.288 275.590,125.195 275.455,124.800 275.200 C 123.494 274.356,100.480 274.703,100.014 275.574 M150.000 275.200 C 149.606 275.455,153.861 275.588,162.400 275.588 C 170.939 275.588,175.194 275.455,174.800 275.200 C 174.447 274.972,169.339 274.812,162.400 274.812 C 155.461 274.812,150.353 274.972,150.000 275.200 M225.600 287.111 C 225.600 297.244,225.520 298.737,224.928 299.581 C 224.283 300.502,224.287 300.526,225.028 300.171 C 226.916 299.268,248.144 299.494,248.900 300.425 C 249.611 301.302,250.050 278.038,249.357 276.233 C 249.143 275.676,247.709 275.600,237.357 275.600 L 225.600 275.600 225.600 287.111 M150.039 299.800 C 150.688 300.449,173.630 300.559,174.508 299.917 C 175.090 299.491,172.974 299.400,162.427 299.400 C 153.902 299.400,149.773 299.533,150.039 299.800 M99.922 336.498 C 100.032 347.729,99.979 348.960,99.360 349.645 C 98.267 350.852,75.784 350.810,75.400 349.600 C 75.197 348.962,74.996 348.881,74.399 349.200 C 73.952 349.440,69.094 349.600,62.288 349.600 C 47.967 349.600,49.600 347.967,49.600 362.287 C 49.600 376.938,47.806 375.284,63.400 375.012 C 70.220 374.892,86.497 374.702,99.570 374.588 C 115.973 374.445,123.505 374.245,123.870 373.942 C 124.609 373.329,124.657 326.817,123.920 326.080 C 123.569 325.729,120.396 325.600,112.143 325.600 C 101.565 325.600,100.812 325.552,100.323 324.853 C 99.889 324.233,99.821 326.208,99.922 336.498 M349.922 336.498 C 350.032 347.729,349.979 348.960,349.360 349.645 C 348.267 350.852,325.784 350.810,325.400 349.600 C 325.197 348.962,324.996 348.881,324.399 349.200 C 323.953 349.439,319.163 349.600,312.496 349.600 C 298.050 349.600,299.600 348.052,299.600 362.481 C 299.600 376.906,297.814 375.284,313.400 375.012 C 320.220 374.892,336.497 374.702,349.570 374.588 C 365.973 374.445,373.505 374.245,373.870 373.942 C 374.609 373.329,374.657 326.817,373.920 326.080 C 373.569 325.729,370.396 325.600,362.143 325.600 C 351.565 325.600,350.812 325.552,350.323 324.853 C 349.889 324.233,349.821 326.208,349.922 336.498 M237.824 324.706 C 223.581 324.842,225.200 323.214,225.200 337.400 C 225.200 351.660,226.887 350.042,212.162 349.906 L 200.600 349.800 200.391 337.800 L 200.182 325.800 200.091 337.220 C 200.025 345.463,199.866 348.774,199.520 349.120 C 199.169 349.471,195.985 349.600,187.694 349.600 C 180.637 349.600,176.055 349.757,175.574 350.014 C 174.485 350.597,174.360 373.503,175.440 374.583 C 176.008 375.151,177.449 375.198,188.340 375.006 C 195.083 374.886,211.335 374.699,224.456 374.588 C 243.778 374.426,248.397 374.285,248.759 373.849 C 249.080 373.462,249.177 366.449,249.103 348.955 L 249.000 324.600 237.824 324.706 M75.600 361.986 C 75.600 373.031,75.564 373.591,74.826 373.986 C 73.667 374.606,51.505 374.545,50.880 373.920 C 50.195 373.235,50.195 351.565,50.880 350.880 C 51.232 350.528,54.587 350.400,63.480 350.400 L 75.600 350.400 75.600 361.986 M199.920 350.880 C 200.862 351.822,200.576 373.477,199.615 373.992 C 199.104 374.265,194.799 374.375,187.315 374.306 L 175.800 374.200 175.694 362.849 C 175.618 354.808,175.720 351.337,176.043 350.949 C 176.664 350.200,199.176 350.136,199.920 350.880 M325.600 361.986 C 325.600 373.031,325.564 373.591,324.826 373.986 C 323.667 374.606,301.505 374.545,300.880 373.920 C 300.530 373.570,300.400 370.453,300.400 362.400 C 300.400 354.347,300.530 351.230,300.880 350.880 C 301.232 350.528,304.587 350.400,313.480 350.400 L 325.600 350.400 325.600 361.986 " stroke="none" fill="#746cac" fill-rule="evenodd"></path><path id="path3" d="M300.400 112.207 C 300.400 121.299,300.515 124.067,300.900 124.205 C 301.175 124.304,306.578 124.433,312.906 124.492 L 324.412 124.600 324.306 112.600 L 324.200 100.600 312.300 100.494 L 300.400 100.388 300.400 112.207 M312.833 150.306 C 305.420 150.376,301.285 150.563,300.945 150.846 C 300.543 151.179,300.398 153.932,300.312 162.840 L 300.200 174.400 312.113 174.400 C 321.332 174.400,324.069 174.286,324.219 173.895 C 324.325 173.618,324.365 168.173,324.306 161.795 L 324.200 150.200 312.833 150.306 M276.043 200.949 C 275.720 201.337,275.618 204.808,275.694 212.849 L 275.800 224.200 287.600 224.200 L 299.400 224.200 299.506 212.849 C 299.582 204.808,299.480 201.337,299.157 200.949 C 298.792 200.508,296.518 200.400,287.600 200.400 C 278.682 200.400,276.408 200.508,276.043 200.949 M200.400 237.489 L 200.400 249.577 212.400 249.689 L 224.400 249.800 224.400 237.600 L 224.400 225.400 212.400 225.400 L 200.400 225.400 200.400 237.489 M75.694 262.200 L 75.800 274.200 87.600 274.200 L 99.400 274.200 99.506 262.311 L 99.612 250.423 87.600 250.311 L 75.588 250.200 75.694 262.200 M125.400 287.600 L 125.400 299.600 137.489 299.600 L 149.577 299.600 149.689 287.600 L 149.800 275.600 137.600 275.600 L 125.400 275.600 125.400 287.600 M175.400 287.594 L 175.400 299.600 187.051 299.600 C 196.434 299.600,198.791 299.493,199.157 299.051 C 199.480 298.663,199.582 295.192,199.506 287.151 L 199.400 275.800 187.400 275.694 L 175.400 275.589 175.400 287.594 " stroke="none" fill="#fc141c" fill-rule="evenodd"></path><path id="path4" d="M74.672 24.721 C 73.679 25.817,73.643 50.577,74.633 50.957 C 76.131 51.532,99.188 51.216,100.662 50.600 C 101.824 50.114,104.264 50.000,113.449 50.000 L 124.800 50.000 124.787 61.900 C 124.774 72.943,124.719 73.865,124.023 74.700 C 122.910 76.034,102.666 76.116,100.878 74.794 C 99.831 74.021,99.279 73.993,86.994 74.094 L 74.200 74.200 73.980 87.000 C 73.860 94.040,73.725 99.845,73.680 99.900 C 73.636 99.955,68.492 100.000,62.249 100.000 C 53.423 100.000,50.802 100.116,50.466 100.520 C 50.190 100.853,49.956 105.354,49.817 113.020 C 49.697 119.609,49.501 130.391,49.382 136.980 C 49.243 144.652,49.010 149.146,48.734 149.480 C 48.398 149.884,45.827 150.000,37.213 150.000 C 26.978 150.000,26.073 150.056,25.462 150.731 C 24.268 152.050,24.482 173.167,25.700 174.290 C 26.582 175.103,27.077 175.126,50.000 175.406 C 62.870 175.564,73.715 175.858,74.100 176.060 C 74.741 176.397,74.800 177.358,74.800 187.414 C 74.800 197.867,74.839 198.439,75.600 199.200 C 76.861 200.461,173.139 200.461,174.400 199.200 C 175.162 198.438,175.200 197.867,175.200 187.280 C 175.200 179.164,175.330 176.030,175.680 175.680 C 176.043 175.317,181.949 175.200,199.810 175.200 L 223.461 175.200 224.330 174.274 C 225.180 173.370,225.200 173.092,225.200 162.336 C 225.200 152.176,225.257 151.273,225.931 150.662 C 226.595 150.062,228.852 150.000,250.085 150.000 L 273.507 150.000 273.748 150.900 C 273.881 151.395,273.992 156.947,273.995 163.238 C 274.000 173.807,274.056 174.726,274.731 175.338 C 275.691 176.206,298.806 176.357,299.517 175.500 C 299.848 175.101,297.512 175.023,288.006 175.111 C 277.467 175.210,276.005 175.148,275.434 174.577 C 274.863 174.006,274.801 172.528,274.894 161.866 L 275.000 149.800 286.766 149.694 C 294.632 149.623,298.710 149.441,299.066 149.145 C 299.820 148.520,299.852 126.210,299.100 125.724 C 298.825 125.546,293.290 125.310,286.800 125.200 L 275.000 125.000 274.894 112.913 L 274.788 100.826 275.759 100.190 C 276.601 99.638,278.266 99.571,288.373 99.677 C 297.763 99.776,299.884 99.703,299.332 99.300 C 298.400 98.619,276.760 98.583,275.474 99.260 C 274.031 100.019,274.013 100.178,274.000 112.200 C 273.993 118.580,273.843 124.028,273.666 124.306 C 273.417 124.700,270.844 124.789,262.172 124.706 L 251.000 124.600 250.714 112.600 C 250.556 106.000,250.320 94.878,250.188 87.884 L 249.948 75.167 262.274 75.382 C 269.053 75.500,279.820 75.695,286.200 75.816 C 302.531 76.126,300.800 77.639,300.800 63.051 C 300.800 54.803,300.929 51.631,301.280 51.280 C 302.059 50.501,323.740 50.605,324.392 51.391 C 324.774 51.851,324.817 57.102,324.586 75.206 L 324.290 98.431 325.215 99.416 L 326.139 100.400 337.208 100.400 C 347.786 100.400,348.308 100.436,349.004 101.204 C 349.713 101.988,349.679 173.302,348.968 174.452 C 348.850 174.643,343.755 174.800,337.646 174.800 C 323.267 174.800,324.800 173.281,324.800 187.526 C 324.800 201.540,323.227 200.000,337.538 200.000 C 351.603 200.000,350.000 198.338,350.000 212.917 C 350.000 223.833,350.036 224.391,350.774 224.786 C 352.553 225.738,373.362 225.308,374.278 224.300 C 375.537 222.915,375.848 172.806,375.247 68.000 L 375.000 25.000 363.038 24.894 C 352.332 24.799,350.999 24.858,350.338 25.456 C 349.654 26.075,349.600 26.947,349.600 37.413 C 349.600 46.491,349.493 48.791,349.051 49.157 C 348.663 49.480,345.244 49.582,337.351 49.506 L 326.200 49.400 326.000 37.464 L 325.800 25.528 324.823 24.738 C 323.909 23.998,204.586 23.885,200.944 24.620 C 199.523 24.907,199.408 25.763,199.200 37.600 L 199.000 49.000 174.600 49.288 C 161.180 49.446,144.575 49.680,137.700 49.809 L 125.200 50.043 125.200 38.298 C 125.200 28.792,125.092 26.405,124.633 25.776 C 123.660 24.444,75.837 23.434,74.672 24.721 M112.400 25.502 L 124.200 25.800 124.306 37.151 C 124.380 44.985,124.276 48.668,123.971 49.034 C 123.630 49.445,120.836 49.616,111.665 49.784 C 105.139 49.903,94.537 50.098,88.106 50.217 C 80.114 50.365,76.156 50.298,75.606 50.003 C 74.484 49.403,74.335 26.523,75.445 25.412 C 76.134 24.723,82.171 24.738,112.400 25.502 M324.300 25.688 C 325.254 26.470,324.996 49.067,324.026 49.586 C 323.547 49.842,319.103 50.000,312.358 50.000 C 298.434 50.000,300.000 48.429,300.000 62.400 C 300.000 72.913,299.960 73.512,299.212 74.189 C 298.296 75.018,251.933 74.748,250.900 73.909 C 250.522 73.601,250.400 70.815,250.400 62.483 C 250.400 48.392,252.065 50.000,237.470 50.000 C 222.712 50.000,224.400 48.388,224.400 62.480 L 224.400 73.636 225.382 74.618 L 226.364 75.600 237.533 75.600 C 245.987 75.600,248.800 75.722,249.105 76.100 C 249.358 76.414,249.614 85.456,249.794 100.400 C 250.042 120.996,250.163 124.293,250.697 124.894 C 251.250 125.517,252.481 125.599,262.757 125.694 L 274.200 125.800 274.306 137.373 C 274.389 146.364,274.300 149.017,273.906 149.266 C 273.628 149.443,262.742 149.591,249.716 149.594 L 226.031 149.600 225.216 150.475 C 224.436 151.313,224.400 151.833,224.400 162.395 C 224.400 170.452,224.270 173.570,223.920 173.920 C 223.558 174.282,217.676 174.400,199.902 174.400 L 176.364 174.400 175.382 175.382 L 174.400 176.364 174.400 187.502 C 174.400 195.632,174.270 198.770,173.920 199.120 C 173.223 199.817,76.777 199.817,76.080 199.120 C 75.730 198.770,75.600 195.639,75.600 187.536 C 75.600 176.856,75.569 176.402,74.780 175.667 C 74.000 174.940,72.811 174.889,50.280 174.610 C 35.255 174.424,26.417 174.168,26.100 173.909 C 25.396 173.336,25.377 151.583,26.080 150.880 C 26.430 150.530,29.551 150.400,37.618 150.400 C 47.646 150.400,48.734 150.335,49.298 149.700 C 49.838 149.092,49.958 145.890,50.212 125.276 C 50.457 105.436,50.599 101.458,51.081 100.976 C 51.555 100.502,53.656 100.400,62.982 100.400 L 74.307 100.400 74.548 99.500 C 74.681 99.005,74.792 93.461,74.795 87.180 C 74.799 78.837,74.929 75.631,75.280 75.280 C 76.082 74.478,98.750 74.609,99.911 75.423 C 100.793 76.041,100.800 76.128,100.800 87.143 C 100.800 95.241,100.930 98.370,101.280 98.720 C 101.788 99.228,122.493 99.446,123.767 98.957 C 124.323 98.744,124.400 97.384,124.400 87.807 C 124.400 79.135,124.523 76.552,125.000 75.200 C 125.478 73.845,125.600 71.244,125.600 62.399 C 125.600 53.584,125.711 51.206,126.138 50.851 C 126.521 50.534,137.138 50.330,162.838 50.148 C 185.601 49.986,199.185 49.745,199.500 49.497 C 199.879 49.198,200.000 46.367,200.000 37.813 C 200.000 27.398,200.056 26.473,200.729 25.864 C 201.913 24.793,322.998 24.620,324.300 25.688 M373.947 26.136 C 374.639 26.970,374.700 222.956,374.009 223.789 C 373.342 224.593,351.676 224.716,350.880 223.920 C 350.530 223.570,350.400 220.420,350.400 212.251 C 350.400 197.976,352.019 199.600,337.787 199.600 C 328.710 199.600,326.409 199.492,326.043 199.051 C 325.720 198.663,325.618 195.192,325.694 187.151 L 325.800 175.800 337.243 175.694 C 347.766 175.596,348.741 175.529,349.352 174.853 C 350.408 173.686,350.878 101.335,349.836 100.294 C 349.211 99.668,348.032 99.600,337.851 99.600 C 329.603 99.600,326.431 99.471,326.080 99.120 C 325.387 98.427,325.387 51.973,326.080 51.280 C 326.431 50.929,329.609 50.800,337.880 50.800 C 352.424 50.800,350.800 52.424,350.800 37.880 C 350.800 29.609,350.929 26.431,351.280 26.080 C 352.013 25.347,373.336 25.400,373.947 26.136 M249.520 51.280 C 249.871 51.631,250.000 54.853,250.000 63.280 L 250.000 74.800 238.080 74.800 C 229.342 74.800,226.032 74.672,225.680 74.320 C 224.975 73.615,224.994 51.350,225.700 51.065 C 226.854 50.599,249.039 50.799,249.520 51.280 M150.480 100.480 C 149.661 101.299,149.807 124.240,150.633 124.557 C 150.981 124.691,156.368 124.800,162.604 124.800 C 172.379 124.800,174.030 124.887,174.571 125.429 C 175.113 125.970,175.200 127.604,175.200 137.210 C 175.200 144.821,175.347 148.686,175.664 149.381 L 176.128 150.400 187.584 150.400 C 195.961 150.400,199.169 150.271,199.520 149.920 C 199.871 149.569,200.000 146.360,200.000 137.982 C 200.000 123.552,198.367 125.200,212.670 125.200 C 223.018 125.200,223.927 125.144,224.538 124.469 C 225.513 123.391,225.543 101.600,224.571 100.629 C 223.742 99.800,151.306 99.654,150.480 100.480 M75.700 101.065 C 74.995 101.350,74.975 123.215,75.680 123.920 C 76.498 124.738,98.640 124.593,98.957 123.767 C 99.446 122.493,99.228 101.788,98.720 101.280 C 98.240 100.800,76.853 100.600,75.700 101.065 M224.306 112.151 C 224.382 120.044,224.280 123.463,223.957 123.851 C 223.592 124.292,221.291 124.401,212.251 124.406 C 206.063 124.409,200.802 124.544,200.560 124.706 C 199.346 125.517,199.200 126.917,199.200 137.741 C 199.200 143.787,199.091 149.019,198.957 149.367 C 198.744 149.923,197.366 150.000,187.604 150.000 L 176.493 150.000 176.252 149.100 C 176.119 148.605,176.008 143.053,176.005 136.762 C 176.000 126.232,175.942 125.272,175.275 124.668 C 174.644 124.097,173.029 123.999,162.775 123.906 L 151.000 123.800 150.893 112.806 C 150.835 106.759,150.874 101.583,150.982 101.304 C 151.138 100.897,158.475 100.816,187.688 100.898 L 224.200 101.000 224.306 112.151 M125.675 125.720 C 124.422 127.054,124.293 148.217,125.531 149.338 C 126.535 150.246,148.410 150.352,149.157 149.452 C 149.480 149.063,149.581 145.437,149.506 136.952 L 149.400 125.000 137.975 124.894 L 126.551 124.788 125.675 125.720 M325.000 137.566 C 325.000 147.490,325.100 149.849,325.506 149.512 C 326.145 148.982,326.042 125.547,325.400 125.333 C 325.139 125.246,325.000 129.500,325.000 137.566 M148.706 137.500 L 148.812 149.200 137.686 149.200 C 129.566 149.200,126.430 149.070,126.080 148.720 C 125.390 148.030,125.396 126.764,126.086 126.074 C 126.450 125.710,129.355 125.614,137.586 125.694 L 148.600 125.800 148.706 137.500 M298.800 137.400 L 298.800 148.800 287.000 148.800 L 275.200 148.800 275.200 137.633 C 275.200 129.074,275.317 126.420,275.700 126.265 C 275.975 126.154,281.285 126.049,287.500 126.032 L 298.800 126.000 298.800 137.400 M200.494 199.215 C 198.971 199.827,198.800 201.175,198.800 212.582 C 198.800 223.039,198.836 223.552,199.623 224.456 C 200.396 225.344,200.420 225.348,200.023 224.526 C 199.757 223.977,199.600 219.513,199.600 212.496 C 199.600 198.050,198.052 199.600,212.481 199.600 C 226.872 199.600,225.258 197.901,225.114 212.900 C 225.039 220.706,225.138 224.755,225.400 224.667 C 225.815 224.529,226.207 202.149,225.822 200.569 C 225.432 198.967,224.140 198.799,212.481 198.825 C 206.387 198.839,200.992 199.014,200.494 199.215 M24.267 224.267 C 23.629 224.904,23.973 249.916,24.629 250.571 C 25.571 251.513,26.135 251.328,25.423 250.311 C 24.609 249.149,24.477 226.083,25.280 225.280 C 26.305 224.255,49.038 224.634,49.777 225.689 C 50.689 226.991,50.700 248.015,49.790 249.760 C 49.069 251.144,49.346 251.626,50.310 250.663 C 51.660 249.313,51.536 225.993,50.171 224.628 C 49.516 223.973,24.903 223.630,24.267 224.267 M74.662 224.731 C 73.794 225.691,73.643 248.806,74.500 249.517 C 74.899 249.848,74.977 247.512,74.889 238.006 C 74.791 227.511,74.854 226.003,75.417 225.440 C 75.974 224.883,77.555 224.800,87.619 224.800 L 99.182 224.800 99.814 225.765 C 100.360 226.599,100.429 228.295,100.323 238.373 C 100.224 247.763,100.297 249.884,100.700 249.332 C 101.381 248.400,101.417 226.760,100.740 225.474 C 99.980 224.029,99.831 224.012,87.362 224.006 C 76.203 224.000,75.276 224.053,74.662 224.731 M124.982 224.982 L 124.000 225.964 124.000 237.208 C 124.000 248.286,124.143 249.681,125.360 250.494 C 125.602 250.656,136.690 250.788,150.000 250.788 C 163.310 250.788,174.398 250.656,174.640 250.494 C 175.857 249.681,176.000 248.286,176.000 237.208 L 176.000 225.964 175.018 224.982 L 174.036 224.000 150.000 224.000 L 125.964 224.000 124.982 224.982 M299.969 225.169 L 298.800 226.338 298.800 237.510 C 298.800 248.326,299.069 251.200,300.082 251.200 C 300.330 251.200,300.354 250.931,300.143 250.500 C 299.613 249.419,299.480 226.572,299.997 225.606 C 300.480 224.703,323.118 224.332,325.374 225.190 C 326.004 225.430,326.400 225.435,326.400 225.204 C 326.400 224.184,324.348 224.000,312.996 224.000 L 301.138 224.000 299.969 225.169 M250.800 225.600 C 250.018 226.382,250.000 226.933,250.000 249.986 C 250.000 273.018,249.982 273.582,249.214 273.992 C 248.705 274.265,244.523 274.375,237.314 274.306 L 226.200 274.200 226.094 262.544 C 226.015 253.892,225.861 250.782,225.494 250.478 C 225.103 250.153,225.023 252.697,225.111 262.634 L 225.222 275.200 212.825 275.200 C 200.761 275.200,200.416 275.178,199.992 274.385 C 199.697 273.834,199.595 269.751,199.678 261.777 C 199.776 252.267,199.703 250.116,199.300 250.668 C 198.928 251.177,198.800 254.205,198.800 262.454 L 198.800 273.555 199.765 274.678 L 200.730 275.800 212.465 276.000 L 224.200 276.200 224.310 287.200 C 224.389 295.142,224.287 298.450,223.942 299.100 L 223.465 300.000 212.394 300.000 C 202.289 300.000,201.268 300.062,200.680 300.712 C 199.997 301.466,200.053 299.904,199.382 336.900 L 199.166 348.800 187.216 348.800 C 180.643 348.800,174.981 348.909,174.633 349.043 C 173.581 349.446,173.686 374.392,174.744 375.349 C 175.419 375.960,176.665 376.003,188.244 375.809 C 195.260 375.691,211.877 375.502,225.170 375.389 C 243.412 375.232,249.485 375.061,249.931 374.691 C 250.446 374.264,250.506 369.505,250.396 337.600 C 250.210 283.635,250.261 277.012,250.874 276.030 C 251.380 275.221,251.683 275.200,263.096 275.200 L 274.800 275.200 274.800 286.724 C 274.800 296.040,274.909 298.396,275.367 299.024 C 275.901 299.754,276.643 299.812,287.867 300.000 L 299.800 300.200 300.000 312.133 C 300.188 323.357,300.246 324.099,300.976 324.633 C 301.602 325.090,303.876 325.200,312.662 325.200 C 323.097 325.200,323.590 325.234,323.992 325.986 C 324.265 326.495,324.375 330.615,324.306 337.686 L 324.200 348.600 312.314 348.800 C 301.601 348.980,300.357 349.070,299.714 349.714 C 298.816 350.611,298.392 372.450,299.233 374.479 C 299.941 376.190,299.504 376.175,334.000 375.661 C 351.710 375.398,367.942 375.186,370.071 375.191 C 375.788 375.204,375.224 378.091,375.103 349.468 L 375.000 325.000 363.400 324.800 C 348.290 324.539,350.000 326.126,350.000 312.366 C 350.000 302.196,349.943 301.272,349.272 300.665 C 348.616 300.071,346.165 299.996,324.372 299.903 L 300.200 299.800 300.097 287.800 C 300.006 277.088,299.922 275.746,299.321 275.300 C 298.818 274.927,295.676 274.800,286.924 274.800 L 275.200 274.800 275.200 250.670 L 275.200 226.539 274.274 225.670 C 272.888 224.367,252.095 224.305,250.800 225.600 M174.320 225.680 C 175.156 226.516,174.988 248.330,174.138 249.269 C 173.164 250.345,127.117 250.411,125.931 249.338 C 125.019 248.512,124.785 226.575,125.680 225.680 C 126.373 224.987,173.627 224.987,174.320 225.680 M274.200 250.000 L 274.200 274.200 262.849 274.306 C 254.808 274.382,251.337 274.280,250.949 273.957 C 250.188 273.326,250.127 226.833,250.886 226.074 C 251.250 225.710,254.243 225.615,262.786 225.694 L 274.200 225.800 274.200 250.000 M100.129 274.959 L 99.000 275.930 98.800 287.865 L 98.600 299.800 87.319 300.000 C 78.827 300.151,75.910 300.328,75.519 300.719 C 75.115 301.123,74.912 306.464,74.600 324.919 L 74.200 348.600 61.933 348.800 C 55.186 348.910,49.516 349.150,49.333 349.333 C 49.150 349.516,48.947 354.995,48.883 361.508 C 48.756 374.326,48.895 375.408,50.731 375.869 C 51.782 376.132,123.789 375.270,124.700 374.983 C 125.543 374.717,125.417 326.274,124.571 325.429 C 124.031 324.888,122.391 324.798,112.871 324.787 C 98.392 324.769,99.957 326.295,100.094 312.331 L 100.200 301.400 112.086 301.200 C 123.018 301.016,124.030 300.940,124.686 300.253 C 125.375 299.532,125.370 299.522,124.526 299.953 C 123.254 300.604,100.733 300.573,100.080 299.920 C 99.377 299.217,99.398 276.429,100.103 275.465 C 100.563 274.836,101.646 274.786,112.703 274.888 C 120.640 274.962,124.755 274.862,124.667 274.600 C 124.583 274.349,120.203 274.161,112.896 274.094 L 101.259 273.988 100.129 274.959 M150.488 274.494 C 150.151 274.900,152.510 275.000,162.434 275.000 C 170.500 275.000,174.754 274.861,174.667 274.600 C 174.453 273.958,151.018 273.855,150.488 274.494 M249.418 276.457 C 249.933 278.080,249.146 373.547,248.614 373.989 C 248.312 374.239,239.271 374.462,224.367 374.588 C 211.295 374.699,195.083 374.886,188.340 375.006 C 177.450 375.198,176.008 375.151,175.440 374.583 C 174.360 373.503,174.485 350.597,175.574 350.014 C 176.055 349.756,180.647 349.600,187.725 349.600 C 196.342 349.600,199.201 349.479,199.510 349.100 C 199.769 348.782,200.025 340.019,200.212 325.076 C 200.458 305.425,200.601 301.456,201.082 300.976 C 201.555 300.502,203.666 300.400,213.006 300.400 C 227.216 300.400,225.600 302.105,225.600 287.111 L 225.600 275.600 237.373 275.600 C 249.056 275.600,249.148 275.607,249.418 276.457 M299.120 276.080 C 299.929 276.889,299.791 298.152,298.971 298.971 C 298.152 299.791,276.889 299.929,276.080 299.120 C 275.559 298.599,275.355 276.378,275.867 275.867 C 276.378 275.355,298.599 275.559,299.120 276.080 M174.296 300.034 C 173.845 300.297,169.350 300.400,161.788 300.322 C 152.269 300.224,150.116 300.297,150.668 300.700 C 151.968 301.649,173.281 301.392,174.456 300.413 C 175.483 299.557,175.411 299.385,174.296 300.034 M99.120 300.880 C 99.471 301.231,99.600 304.389,99.600 312.591 C 99.600 327.256,98.003 325.600,112.143 325.600 C 120.396 325.600,123.569 325.729,123.920 326.080 C 124.657 326.817,124.609 373.329,123.870 373.942 C 123.505 374.245,115.973 374.445,99.570 374.588 C 86.497 374.702,70.220 374.892,63.400 375.012 C 47.806 375.284,49.600 376.938,49.600 362.287 C 49.600 347.967,47.967 349.600,62.288 349.600 C 68.828 349.600,73.959 349.436,74.374 349.214 C 75.052 348.851,75.114 347.389,75.390 325.114 C 75.576 310.066,75.832 301.217,76.091 300.900 C 76.664 300.196,98.417 300.177,99.120 300.880 M348.971 301.029 C 349.513 301.570,349.600 303.198,349.600 312.740 C 349.600 327.231,348.009 325.600,362.143 325.600 C 370.396 325.600,373.569 325.729,373.920 326.080 C 374.657 326.817,374.609 373.329,373.870 373.942 C 373.505 374.245,365.973 374.445,349.570 374.588 C 336.497 374.702,320.220 374.892,313.400 375.012 C 297.814 375.284,299.600 376.906,299.600 362.481 C 299.600 348.052,298.050 349.600,312.496 349.600 C 319.422 349.600,323.946 349.443,324.426 349.186 C 325.647 348.532,325.623 326.423,324.400 325.200 C 323.638 324.438,323.067 324.400,312.480 324.400 C 304.364 324.400,301.230 324.270,300.880 323.920 C 300.071 323.111,300.209 301.848,301.029 301.029 C 301.984 300.073,348.016 300.073,348.971 301.029 " stroke="none" fill="#4c4444" fill-rule="evenodd"></path><path id="path5" d="M48.400 25.800 L 48.400 51.600 61.000 51.600 L 73.600 51.600 73.600 62.600 L 73.600 73.600 61.000 73.600 L 48.400 73.600 48.400 86.000 L 48.400 98.400 36.000 98.400 L 23.600 98.400 23.600 123.400 L 23.600 148.400 11.800 148.400 L 0.000 148.400 0.000 175.000 L 0.000 201.600 11.800 201.600 L 23.600 201.600 23.600 212.600 L 23.600 223.600 11.800 223.600 L 0.000 223.600 0.000 250.000 L 0.000 276.400 11.800 276.400 L 23.600 276.400 23.600 289.000 L 23.600 301.600 36.000 301.600 L 48.400 301.600 48.400 325.000 L 48.400 348.400 36.000 348.400 L 23.600 348.400 23.600 374.200 L 23.600 400.000 75.000 400.000 L 126.400 400.000 126.400 388.200 L 126.400 376.400 137.400 376.400 L 148.400 376.400 148.400 388.200 L 148.400 400.000 200.000 400.000 L 251.600 400.000 251.600 388.200 L 251.600 376.400 262.600 376.400 L 273.600 376.400 273.600 388.200 L 273.600 400.000 336.800 400.000 L 400.000 400.000 400.000 361.800 L 400.000 323.600 388.200 323.600 L 376.400 323.600 376.400 287.600 L 376.400 251.600 388.200 251.600 L 400.000 251.600 400.000 137.600 L 400.000 23.600 388.200 23.600 L 376.400 23.600 376.400 11.800 L 376.400 0.000 275.000 0.000 L 173.600 0.000 173.600 11.800 L 173.600 23.600 150.000 23.600 L 126.400 23.600 126.400 11.800 L 126.400 0.000 87.400 0.000 L 48.400 0.000 48.400 25.800 M125.867 24.133 C 126.050 24.316,126.259 29.942,126.331 36.635 L 126.462 48.804 162.531 48.702 L 198.600 48.600 198.800 36.612 L 199.000 24.623 200.000 24.115 C 201.818 23.191,324.552 23.581,325.486 24.514 C 326.134 25.161,326.211 26.338,326.322 37.214 L 326.444 49.200 337.342 49.200 C 345.285 49.200,348.370 49.070,348.720 48.720 C 349.071 48.369,349.200 45.152,349.200 36.743 C 349.200 25.315,349.205 25.242,350.089 24.623 C 351.276 23.791,374.846 23.677,375.499 24.500 C 376.330 25.546,376.317 224.653,375.486 225.485 C 374.839 226.133,373.674 226.211,362.986 226.322 L 351.200 226.444 351.200 249.996 C 351.200 273.755,351.109 275.343,349.723 275.737 C 349.325 275.850,338.245 276.067,325.100 276.219 L 301.200 276.496 301.200 287.648 L 301.200 298.800 325.324 298.800 C 345.517 298.800,349.574 298.892,350.224 299.367 C 350.954 299.901,351.012 300.643,351.200 311.867 L 351.400 323.800 363.166 323.906 C 371.032 323.977,375.110 324.159,375.466 324.455 C 375.901 324.815,376.000 329.475,376.000 349.467 L 376.000 374.036 375.085 374.952 L 374.169 375.867 337.418 376.136 C 304.819 376.374,300.561 376.335,299.733 375.793 L 298.800 375.182 298.800 362.471 C 298.800 353.118,298.927 349.633,299.280 349.280 C 299.632 348.928,302.942 348.800,311.680 348.800 L 323.600 348.800 323.600 337.623 L 323.600 326.445 311.964 326.323 L 300.328 326.200 299.564 325.256 C 298.851 324.375,298.800 323.534,298.800 312.756 L 298.800 301.200 287.244 301.200 C 276.466 301.200,275.625 301.149,274.744 300.436 L 273.800 299.672 273.677 288.036 L 273.555 276.400 262.428 276.400 L 251.300 276.400 251.002 325.988 C 250.729 371.313,250.647 375.592,250.051 375.754 C 248.220 376.254,174.824 376.182,174.321 375.680 C 173.914 375.274,173.800 372.296,173.800 362.080 L 173.800 349.000 186.200 348.800 L 198.600 348.600 198.703 324.898 L 198.806 301.197 150.103 301.298 L 101.400 301.400 101.400 312.600 L 101.400 323.800 112.936 324.000 C 124.466 324.200,124.472 324.200,125.236 325.144 C 126.201 326.337,126.455 374.743,125.500 375.497 C 124.549 376.247,50.751 376.521,49.690 375.778 C 48.801 375.155,48.800 375.147,48.800 361.977 L 48.800 348.800 61.188 348.800 L 73.576 348.800 73.688 324.614 C 73.793 302.024,73.847 300.381,74.514 299.714 C 75.156 299.071,76.391 298.980,86.914 298.800 L 98.600 298.600 98.600 287.400 L 98.600 276.200 86.867 276.000 C 76.265 275.819,75.085 275.732,74.620 275.096 C 74.043 274.306,73.270 228.013,73.793 225.630 C 73.979 224.786,74.410 224.224,75.063 223.976 C 76.889 223.282,99.280 223.501,100.311 224.223 L 101.200 224.845 101.200 249.165 L 101.200 273.484 121.900 273.680 C 133.285 273.788,155.200 273.859,170.600 273.838 L 198.600 273.800 198.702 236.838 C 198.775 210.337,198.931 199.725,199.251 199.338 C 199.608 198.908,202.249 198.800,212.440 198.800 L 225.182 198.800 225.855 199.828 C 226.473 200.770,226.506 202.390,226.257 219.116 C 226.108 229.158,226.108 245.618,226.258 255.694 L 226.530 274.012 237.565 273.906 L 248.600 273.800 248.800 249.514 C 248.986 226.896,249.049 225.179,249.714 224.514 C 250.361 223.867,251.531 223.789,262.214 223.678 L 274.000 223.556 274.000 212.040 C 274.000 200.841,274.023 200.503,274.842 199.762 C 276.098 198.625,299.153 198.581,300.286 199.714 C 300.933 200.360,301.011 201.518,301.117 212.014 L 301.235 223.600 325.017 223.600 L 348.800 223.600 348.800 212.400 L 348.800 201.200 337.244 201.200 C 326.466 201.200,325.625 201.149,324.744 200.436 L 323.800 199.672 323.678 187.799 L 323.555 175.926 299.200 176.063 C 279.622 176.173,274.743 176.098,274.323 175.681 C 273.921 175.281,273.773 172.388,273.683 163.181 L 273.566 151.200 250.005 151.200 L 226.444 151.200 226.322 162.986 C 226.211 173.669,226.133 174.840,225.486 175.486 C 224.819 176.153,223.177 176.207,200.608 176.312 L 176.445 176.424 176.322 188.048 L 176.200 199.672 175.256 200.436 C 173.776 201.633,76.224 201.633,74.744 200.436 L 73.800 199.672 73.678 188.048 L 73.555 176.424 49.392 176.312 C 26.823 176.207,25.181 176.153,24.514 175.486 C 23.711 174.684,23.207 155.032,23.886 150.982 L 24.218 149.000 36.409 148.800 L 48.600 148.600 48.800 123.800 L 49.000 99.000 61.294 98.894 L 73.589 98.788 73.694 86.294 L 73.800 73.800 87.000 73.890 C 94.260 73.939,105.465 74.082,111.900 74.207 L 123.600 74.435 123.600 62.820 L 123.600 51.206 98.700 51.103 L 73.800 51.000 73.684 39.000 C 73.555 25.614,73.645 24.523,74.922 23.995 C 76.024 23.541,125.408 23.674,125.867 24.133 M226.400 62.394 L 226.400 73.600 237.606 73.600 L 248.813 73.600 248.706 62.500 L 248.600 51.400 237.500 51.294 L 226.400 51.187 226.400 62.394 M301.200 62.917 C 301.200 72.415,301.092 74.795,300.632 75.424 C 300.083 76.175,299.288 76.204,275.632 76.312 L 251.200 76.424 251.200 100.012 L 251.200 123.600 262.400 123.600 L 273.600 123.600 273.600 112.089 C 273.600 102.318,273.694 100.444,274.223 99.689 L 274.845 98.800 299.426 98.800 L 324.006 98.800 323.903 75.100 L 323.800 51.400 312.500 51.294 L 301.200 51.188 301.200 62.917 M151.467 101.467 C 151.320 101.613,151.200 106.646,151.200 112.650 L 151.200 123.566 163.181 123.683 C 172.344 123.773,175.283 123.922,175.681 124.319 C 176.078 124.717,176.227 127.657,176.317 136.826 L 176.434 148.813 187.517 148.706 L 198.600 148.600 198.800 136.612 L 199.000 124.623 200.000 124.117 C 200.735 123.746,203.997 123.610,212.300 123.606 L 223.600 123.600 223.600 112.400 L 223.600 101.200 187.667 101.200 C 167.903 101.200,151.613 101.320,151.467 101.467 M326.133 137.400 L 326.135 173.600 337.467 173.600 L 348.800 173.600 348.800 137.400 L 348.800 101.200 337.465 101.200 L 326.130 101.200 326.133 137.400 M126.400 137.606 L 126.400 148.813 137.500 148.706 L 148.600 148.600 148.706 137.500 L 148.813 126.400 137.606 126.400 L 126.400 126.400 126.400 137.606 M276.400 137.606 L 276.400 148.813 287.500 148.706 L 298.600 148.600 298.706 137.500 L 298.813 126.400 287.606 126.400 L 276.400 126.400 276.400 137.606 M50.368 224.300 L 51.224 225.000 51.112 249.932 C 51.004 274.083,50.976 274.883,50.224 275.432 C 49.375 276.053,24.633 276.308,24.266 275.700 C 23.962 275.196,23.477 224.523,23.772 224.046 C 24.291 223.205,49.321 223.444,50.368 224.300 M175.486 224.514 C 176.634 225.663,176.577 249.789,175.424 250.632 C 174.265 251.480,125.735 251.480,124.576 250.632 C 123.580 249.903,123.351 225.865,124.329 224.685 C 125.151 223.695,125.180 223.694,150.686 223.749 C 173.236 223.797,174.817 223.846,175.486 224.514 M276.400 249.794 L 276.400 273.600 287.603 273.600 L 298.806 273.600 298.703 249.900 L 298.600 226.200 287.500 226.094 L 276.400 225.987 276.400 249.794 M201.200 287.606 L 201.200 298.812 212.500 298.706 L 223.800 298.600 223.906 287.500 L 224.013 276.400 212.606 276.400 L 201.200 276.400 201.200 287.606 M173.600 337.400 L 173.600 348.400 162.600 348.400 L 151.600 348.400 151.600 337.400 L 151.600 326.400 162.600 326.400 L 173.600 326.400 173.600 337.400 " stroke="none" fill="#1c0c04" fill-rule="evenodd"></path><path id="path6" d="M350.229 25.029 C 349.348 25.909,349.440 26.268,350.338 25.456 C 350.999 24.858,352.332 24.799,363.038 24.894 L 375.000 25.000 375.203 62.000 L 375.406 99.000 375.503 62.180 C 375.577 33.967,375.488 25.248,375.120 24.880 C 374.309 24.069,351.049 24.208,350.229 25.029 M349.197 37.600 L 349.000 49.000 337.538 49.000 C 331.234 49.000,326.160 49.135,326.262 49.300 C 326.629 49.894,348.656 49.655,349.157 49.051 C 349.480 48.663,349.581 45.249,349.503 37.351 L 349.393 26.200 349.197 37.600 M323.893 51.233 C 324.251 51.691,324.418 54.896,324.500 62.833 L 324.613 73.800 324.707 62.749 C 324.792 52.634,324.741 51.651,324.100 51.149 C 323.482 50.664,323.458 50.674,323.893 51.233 M107.124 75.499 C 110.273 75.567,115.313 75.567,118.324 75.499 C 121.336 75.431,118.760 75.376,112.600 75.376 C 106.440 75.376,103.976 75.432,107.124 75.499 M324.000 98.636 C 324.000 100.737,324.432 100.807,336.923 100.707 L 348.600 100.613 337.415 100.500 L 326.230 100.387 325.115 99.319 C 324.502 98.731,324.000 98.424,324.000 98.636 M349.388 125.000 C 349.388 137.980,349.438 143.232,349.500 136.671 C 349.562 130.111,349.561 119.491,349.500 113.071 C 349.438 106.652,349.387 112.020,349.388 125.000 M324.400 124.398 C 324.400 124.604,324.756 124.962,325.191 125.195 C 325.826 125.535,325.938 125.504,325.760 125.040 C 325.502 124.367,324.400 123.847,324.400 124.398 M325.002 149.998 C 324.603 150.439,324.462 150.800,324.689 150.800 C 325.192 150.800,326.190 149.657,325.921 149.388 C 325.815 149.282,325.402 149.556,325.002 149.998 M299.802 175.198 C 299.403 175.639,299.262 176.000,299.489 176.000 C 299.992 176.000,300.990 174.857,300.721 174.588 C 300.615 174.482,300.202 174.756,299.802 175.198 M198.800 223.879 C 198.800 224.415,199.900 225.834,200.133 225.599 C 200.242 225.490,199.987 224.975,199.566 224.456 C 199.145 223.936,198.800 223.677,198.800 223.879 M299.600 224.800 C 299.160 225.240,298.805 225.825,298.812 226.100 C 298.819 226.384,298.997 226.304,299.224 225.914 C 299.444 225.537,300.018 224.952,300.501 224.614 C 300.983 224.276,301.158 224.000,300.889 224.000 C 300.620 224.000,300.040 224.360,299.600 224.800 M225.100 224.832 C 224.715 225.056,224.400 225.405,224.400 225.607 C 224.400 226.150,225.502 225.631,225.757 224.969 C 226.012 224.303,226.010 224.302,225.100 224.832 M74.000 249.489 C 74.000 249.992,75.143 250.990,75.412 250.721 C 75.518 250.615,75.244 250.202,74.802 249.802 C 74.361 249.403,74.000 249.262,74.000 249.489 M225.002 250.002 C 225.402 250.444,225.815 250.718,225.921 250.612 C 226.190 250.343,225.192 249.200,224.689 249.200 C 224.462 249.200,224.603 249.561,225.002 250.002 M198.812 273.900 C 198.797 274.536,200.244 276.000,200.889 276.000 C 201.158 276.000,200.983 275.724,200.501 275.386 C 200.018 275.048,199.444 274.463,199.224 274.086 C 198.997 273.696,198.819 273.616,198.812 273.900 M99.600 274.800 C 99.160 275.240,98.805 275.825,98.812 276.100 C 98.819 276.384,98.997 276.304,99.224 275.914 C 99.444 275.537,100.018 274.952,100.501 274.614 C 100.983 274.276,101.158 274.000,100.889 274.000 C 100.620 274.000,100.040 274.360,99.600 274.800 M124.805 274.809 C 125.038 275.244,125.396 275.600,125.602 275.600 C 126.153 275.600,125.633 274.498,124.960 274.240 C 124.496 274.062,124.465 274.174,124.805 274.809 M149.592 274.610 C 148.819 275.541,149.371 275.717,150.198 274.802 C 150.597 274.361,150.738 274.000,150.511 274.000 C 150.284 274.000,149.870 274.274,149.592 274.610 M174.805 274.809 C 175.038 275.244,175.396 275.600,175.602 275.600 C 176.153 275.600,175.633 274.498,174.960 274.240 C 174.496 274.062,174.465 274.174,174.805 274.809 M250.581 276.506 C 250.474 276.784,250.435 281.869,250.494 287.806 L 250.601 298.600 250.801 287.300 C 250.910 281.085,250.949 276.000,250.887 276.000 C 250.826 276.000,250.688 276.228,250.581 276.506 M124.456 300.434 C 123.936 300.855,123.677 301.200,123.879 301.200 C 124.415 301.200,125.834 300.100,125.599 299.867 C 125.490 299.758,124.975 300.013,124.456 300.434 M174.456 300.434 C 173.936 300.855,173.677 301.200,173.879 301.200 C 174.415 301.200,175.834 300.100,175.599 299.867 C 175.490 299.758,174.975 300.013,174.456 300.434 M101.461 324.500 C 101.564 324.665,106.664 324.800,112.795 324.800 C 122.419 324.800,124.029 324.886,124.574 325.432 C 125.139 325.996,125.195 328.682,125.103 350.532 L 125.000 375.000 113.000 375.209 L 101.000 375.418 112.820 375.509 C 121.584 375.576,124.764 375.476,125.120 375.120 C 126.019 374.221,125.789 325.895,124.882 325.074 C 124.120 324.385,101.040 323.819,101.461 324.500 M351.533 324.494 C 351.695 324.655,357.041 324.835,363.414 324.894 L 375.000 325.000 375.096 349.400 C 375.154 364.326,375.043 374.033,374.811 374.400 C 374.492 374.903,372.532 375.034,362.715 375.212 L 351.000 375.424 362.638 375.512 C 373.469 375.594,374.322 375.549,374.938 374.869 C 375.836 373.877,375.967 325.602,375.074 324.861 C 374.477 324.366,351.039 324.000,351.533 324.494 M250.588 349.400 C 250.588 363.040,250.638 368.678,250.700 361.929 C 250.761 355.180,250.761 344.020,250.700 337.129 C 250.638 330.238,250.588 335.760,250.588 349.400 M249.757 374.803 C 249.514 375.046,240.287 375.234,225.383 375.300 L 201.400 375.406 225.676 375.503 C 242.537 375.570,250.033 375.470,250.216 375.173 C 250.576 374.592,250.239 374.321,249.757 374.803 " stroke="none" fill="#542444" fill-rule="evenodd"></path><path id="path7" d="M100.800 24.397 C 101.154 24.627,105.956 24.790,112.500 24.794 C 126.808 24.802,125.200 23.102,125.200 38.221 L 125.200 50.043 137.700 49.809 C 144.575 49.680,161.180 49.446,174.600 49.288 L 199.000 49.000 199.200 37.600 C 199.368 28.000,199.536 25.711,200.143 24.705 C 200.174 24.653,216.850 24.516,237.200 24.401 L 274.200 24.192 237.376 24.096 C 206.110 24.014,200.436 24.086,199.776 24.567 C 199.043 25.103,198.994 25.789,198.883 36.969 L 198.766 48.804 162.483 48.702 L 126.200 48.600 126.000 36.400 L 125.800 24.200 113.000 24.103 C 104.553 24.039,100.404 24.139,100.800 24.397 M100.600 50.611 C 99.548 51.090,100.908 51.172,111.600 51.279 L 123.800 51.400 123.800 63.066 C 123.800 72.354,123.902 74.648,124.300 74.317 C 124.680 74.002,124.800 71.024,124.800 61.951 L 124.800 50.000 113.300 50.032 C 104.490 50.057,101.519 50.193,100.600 50.611 M225.700 51.065 C 224.994 51.350,224.975 73.615,225.680 74.320 C 226.032 74.672,229.342 74.800,238.080 74.800 L 250.000 74.800 250.000 63.280 C 250.000 54.853,249.871 51.631,249.520 51.280 C 249.039 50.799,226.854 50.599,225.700 51.065 M248.706 62.500 L 248.600 73.800 237.400 73.800 L 226.200 73.800 226.093 63.006 C 226.035 57.069,226.074 51.984,226.181 51.706 C 226.331 51.315,228.917 51.200,237.594 51.200 L 248.812 51.200 248.706 62.500 M250.188 87.900 C 250.320 94.885,250.556 106.000,250.714 112.600 L 251.000 124.600 262.255 124.706 C 271.041 124.789,273.552 124.701,273.704 124.306 C 273.858 123.905,271.557 123.800,262.649 123.800 L 251.400 123.800 251.400 100.000 L 251.400 76.200 263.600 76.000 C 270.471 75.887,275.210 75.669,274.450 75.500 C 273.707 75.335,267.891 75.200,261.524 75.200 L 249.949 75.200 250.188 87.900 M61.733 98.786 C 55.096 98.904,49.516 99.150,49.333 99.333 C 49.150 99.516,48.951 110.721,48.891 124.233 L 48.782 148.800 37.165 148.800 C 29.922 148.800,25.256 148.956,24.774 149.214 C 23.746 149.764,23.556 173.640,24.568 175.024 C 25.116 175.774,25.965 175.807,49.468 176.000 L 73.800 176.200 74.000 188.067 C 74.110 194.594,74.290 200.015,74.400 200.113 C 75.559 201.147,78.003 201.200,125.000 201.200 C 171.997 201.200,174.441 201.147,175.600 200.113 C 175.710 200.015,175.890 194.594,176.000 188.067 L 176.200 176.200 200.480 176.000 C 219.642 175.842,224.870 175.691,225.280 175.281 C 225.673 174.888,225.849 171.911,226.000 163.081 L 226.200 151.400 250.036 151.400 C 272.541 151.400,273.863 151.361,273.690 150.700 C 273.399 149.590,226.868 149.620,225.862 150.731 C 225.280 151.375,225.200 152.789,225.200 162.462 C 225.200 173.441,225.198 173.462,224.274 174.330 L 223.348 175.200 199.754 175.200 C 181.936 175.200,176.042 175.318,175.680 175.680 C 175.330 176.030,175.200 179.164,175.200 187.280 C 175.200 197.867,175.162 198.438,174.400 199.200 C 173.139 200.461,76.861 200.461,75.600 199.200 C 74.839 198.439,74.800 197.867,74.800 187.414 C 74.800 177.358,74.741 176.397,74.100 176.060 C 73.715 175.858,62.870 175.564,50.000 175.406 C 27.077 175.126,26.582 175.103,25.700 174.290 C 24.424 173.114,24.272 151.802,25.531 150.662 C 26.175 150.080,27.590 150.000,37.283 150.000 C 45.839 150.000,48.399 149.884,48.734 149.480 C 49.010 149.146,49.243 144.652,49.382 136.980 C 49.501 130.391,49.697 119.609,49.817 113.020 C 49.956 105.354,50.190 100.853,50.466 100.520 C 50.802 100.116,53.415 100.000,62.202 100.000 C 73.170 100.000,73.513 99.976,73.716 99.200 C 73.831 98.760,73.897 98.439,73.863 98.486 C 73.828 98.533,68.370 98.668,61.733 98.786 M299.600 99.096 C 299.930 99.225,300.380 99.569,300.600 99.862 C 300.914 100.279,303.505 100.417,312.600 100.497 L 324.200 100.600 324.306 112.176 C 324.406 123.075,324.458 123.795,325.195 124.481 C 325.970 125.203,325.978 125.098,326.089 113.005 C 326.175 103.569,326.089 100.800,325.709 100.800 C 325.439 100.800,324.924 100.350,324.563 99.800 L 323.908 98.800 311.454 98.832 C 304.604 98.849,299.270 98.968,299.600 99.096 M151.069 101.065 C 150.698 101.436,150.728 123.508,151.100 123.739 C 151.265 123.841,151.350 118.810,151.288 112.560 L 151.176 101.196 187.488 101.298 L 223.800 101.400 223.800 112.600 L 223.800 123.800 211.919 124.000 C 202.929 124.151,199.912 124.326,199.519 124.719 C 199.123 125.116,198.972 128.023,198.883 137.031 L 198.766 148.824 187.446 148.712 C 176.831 148.607,176.138 148.644,176.310 149.300 C 176.577 150.320,198.567 150.385,198.957 149.367 C 199.091 149.019,199.200 143.787,199.200 137.741 C 199.200 126.917,199.346 125.517,200.560 124.706 C 200.802 124.544,206.063 124.409,212.251 124.406 C 221.291 124.401,223.592 124.292,223.957 123.851 C 224.280 123.463,224.382 120.044,224.306 112.151 L 224.200 101.000 187.769 100.898 C 167.732 100.842,151.217 100.917,151.069 101.065 M126.080 126.080 C 125.396 126.764,125.396 148.036,126.080 148.720 C 126.435 149.075,129.483 149.176,137.780 149.109 L 149.000 149.019 137.600 148.809 L 126.200 148.600 126.200 137.400 L 126.200 126.200 137.462 126.200 C 143.656 126.200,148.640 126.065,148.538 125.900 C 148.208 125.366,126.621 125.539,126.080 126.080 M275.700 126.265 C 274.972 126.558,274.972 148.800,275.700 148.800 C 276.088 148.800,276.200 146.253,276.200 137.400 C 276.200 131.130,276.200 126.014,276.200 126.032 C 276.200 126.049,275.975 126.154,275.700 126.265 M325.106 150.571 C 324.480 151.030,324.402 152.205,324.306 162.640 L 324.200 174.200 312.640 174.306 C 302.205 174.402,301.030 174.480,300.571 175.106 C 300.094 175.759,300.761 175.812,311.932 176.000 L 323.800 176.200 324.000 188.067 C 324.110 194.594,324.290 200.015,324.400 200.113 C 325.463 201.062,327.132 201.200,337.580 201.200 L 348.812 201.200 348.706 212.500 L 348.600 223.800 336.906 223.906 C 325.242 224.012,325.214 224.014,326.006 224.806 C 326.760 225.560,327.362 225.600,337.992 225.600 L 349.185 225.600 349.411 226.500 C 349.535 226.995,349.538 232.530,349.417 238.800 C 349.296 245.070,349.100 255.460,348.982 261.888 L 348.766 273.576 337.483 273.783 C 301.218 274.448,301.077 274.448,300.740 273.917 C 300.560 273.632,300.409 268.405,300.406 262.300 C 300.402 255.315,300.255 251.200,300.008 251.200 C 299.792 251.200,299.477 250.705,299.308 250.100 C 299.138 249.492,298.911 254.544,298.800 261.400 L 298.600 273.800 287.400 273.800 L 276.200 273.800 276.200 250.000 L 276.200 226.200 287.400 226.200 C 298.577 226.200,298.601 226.198,299.110 225.305 C 299.391 224.813,300.021 224.310,300.510 224.187 L 301.400 223.964 301.200 212.196 C 301.020 201.592,300.929 200.356,300.286 199.713 C 299.157 198.586,276.098 198.625,274.848 199.757 C 274.041 200.487,274.008 200.923,273.906 212.157 L 273.800 223.800 261.933 224.000 C 255.406 224.110,249.985 224.290,249.887 224.400 C 248.880 225.527,248.800 227.439,248.800 250.207 C 248.800 269.117,248.904 274.032,249.300 273.900 C 249.690 273.770,249.844 268.455,250.000 249.834 C 250.193 226.761,250.227 225.916,250.976 225.368 C 252.512 224.245,273.238 224.563,274.330 225.726 L 275.200 226.652 275.200 250.726 L 275.200 274.800 286.924 274.800 C 295.676 274.800,298.818 274.927,299.321 275.300 C 299.922 275.746,300.006 277.088,300.097 287.800 L 300.200 299.800 324.372 299.903 C 346.165 299.996,348.616 300.071,349.272 300.665 C 349.943 301.272,350.000 302.198,350.000 312.419 C 350.000 322.049,350.082 323.546,350.617 323.751 C 351.630 324.140,351.307 300.734,350.286 299.714 C 349.619 299.047,347.979 298.993,325.380 298.891 L 301.188 298.782 301.294 287.491 L 301.400 276.200 325.200 276.000 C 345.237 275.832,349.756 275.663,350.467 275.057 C 350.504 275.026,350.729 264.020,350.967 250.600 L 351.400 226.200 363.133 226.000 C 374.159 225.812,374.900 225.753,375.433 225.024 C 375.914 224.365,375.989 218.638,375.924 187.224 C 375.865 158.490,375.788 153.379,375.578 164.400 C 375.429 172.210,375.283 188.694,375.254 201.030 L 375.200 223.461 374.274 224.330 C 373.231 225.311,352.505 225.713,350.774 224.786 C 350.036 224.391,350.000 223.832,350.000 212.848 C 350.000 198.347,351.613 200.000,337.469 200.000 C 323.236 200.000,324.800 201.546,324.800 187.470 C 324.800 173.312,323.236 174.845,337.819 174.706 L 349.000 174.600 349.012 162.400 L 349.024 150.200 348.812 162.000 L 348.600 173.800 337.400 173.800 L 326.200 173.800 326.000 161.932 C 325.812 150.761,325.759 150.094,325.106 150.571 M299.157 200.949 C 299.480 201.337,299.582 204.808,299.506 212.849 L 299.400 224.200 287.600 224.200 L 275.800 224.200 275.694 212.849 C 275.618 204.808,275.720 201.337,276.043 200.949 C 276.408 200.508,278.682 200.400,287.600 200.400 C 296.518 200.400,298.792 200.508,299.157 200.949 M198.832 237.700 C 198.849 245.015,198.965 250.730,199.090 250.400 C 199.215 250.070,199.561 249.656,199.859 249.480 C 200.869 248.883,200.628 226.228,199.600 225.200 L 198.800 224.400 198.832 237.700 M225.100 225.557 C 223.946 226.727,224.038 248.782,225.200 249.507 C 225.994 250.003,226.000 249.907,226.000 237.403 C 226.000 230.472,225.955 224.811,225.900 224.824 C 225.845 224.837,225.485 225.167,225.100 225.557 M100.891 249.657 C 100.841 250.019,100.533 250.417,100.206 250.542 C 99.703 250.735,99.596 252.561,99.506 262.485 L 99.400 274.200 87.600 274.200 L 75.800 274.200 75.694 262.593 C 75.593 251.508,75.552 250.963,74.794 250.489 C 73.746 249.835,73.526 273.599,74.567 275.024 C 75.432 276.207,98.676 276.626,99.043 275.465 C 99.172 275.060,99.754 274.520,100.338 274.265 L 101.400 273.800 101.191 261.400 C 101.077 254.580,100.942 249.296,100.891 249.657 M24.006 262.271 C 24.001 273.081,24.084 274.827,24.629 275.371 C 25.429 276.172,47.835 276.325,49.326 275.540 C 50.771 274.780,50.788 274.627,50.794 262.338 L 50.800 250.475 49.803 250.938 L 48.806 251.400 48.803 262.500 L 48.800 273.600 37.600 273.600 L 26.400 273.600 26.400 262.614 C 26.400 251.628,26.400 251.628,25.500 251.154 C 25.005 250.894,24.468 250.482,24.306 250.240 C 24.144 249.998,24.009 255.412,24.006 262.271 M186.690 273.906 C 174.862 274.011,174.785 274.017,175.514 274.800 C 176.207 275.543,176.897 275.593,187.824 275.694 L 199.400 275.800 199.506 287.151 C 199.582 295.192,199.480 298.663,199.157 299.051 C 198.791 299.493,196.480 299.600,187.351 299.600 C 176.533 299.600,175.962 299.638,175.200 300.400 L 174.400 301.200 186.600 301.200 L 198.800 301.200 198.888 325.100 C 198.982 350.527,199.131 348.649,199.813 313.406 C 200.011 303.200,200.141 301.307,200.685 300.706 C 201.266 300.064,202.322 300.000,212.419 300.000 C 221.913 300.000,223.548 299.913,223.745 299.400 C 223.946 298.875,222.544 298.800,212.575 298.800 L 201.176 298.800 201.288 287.418 L 201.400 276.036 200.510 275.813 C 200.021 275.690,199.391 275.187,199.110 274.695 L 198.600 273.800 186.690 273.906 M125.493 274.800 C 126.148 275.565,126.673 275.600,137.593 275.600 C 148.574 275.600,149.027 275.570,149.507 274.800 C 150.003 274.006,149.907 274.000,137.407 274.000 C 124.846 274.000,124.810 274.002,125.493 274.800 M251.200 275.594 C 251.200 275.840,255.424 276.027,262.500 276.094 L 273.800 276.200 274.000 288.067 C 274.110 294.594,274.290 300.015,274.400 300.113 C 275.463 301.062,277.132 301.200,287.574 301.200 L 298.800 301.200 298.800 312.426 C 298.800 322.868,298.938 324.537,299.887 325.600 C 299.985 325.710,305.406 325.890,311.933 326.000 L 323.800 326.200 323.800 337.462 C 323.800 343.656,323.935 348.640,324.100 348.538 C 324.573 348.246,324.465 326.868,323.986 325.974 C 323.592 325.238,323.039 325.200,312.662 325.200 C 303.876 325.200,301.602 325.090,300.976 324.633 C 300.246 324.099,300.188 323.357,300.000 312.133 L 299.800 300.200 287.867 300.000 C 276.643 299.812,275.901 299.754,275.367 299.024 C 274.909 298.396,274.800 296.040,274.800 286.724 L 274.800 275.200 263.000 275.200 C 255.524 275.200,251.200 275.344,251.200 275.594 M75.400 299.271 C 74.960 299.517,74.510 299.796,74.400 299.892 C 74.105 300.149,73.756 348.751,74.050 348.569 C 74.188 348.484,74.434 337.886,74.598 325.018 C 74.829 306.844,75.011 301.464,75.415 300.911 C 75.885 300.267,77.004 300.181,87.234 300.000 C 95.774 299.849,98.575 299.678,98.700 299.300 C 98.925 298.624,76.608 298.596,75.400 299.271 M125.100 300.433 C 124.411 301.188,124.615 301.199,137.700 301.168 C 145.015 301.151,150.730 301.035,150.400 300.910 C 150.070 300.785,149.656 300.439,149.480 300.141 C 148.900 299.159,126.013 299.433,125.100 300.433 M250.261 300.866 C 249.931 302.099,249.926 323.342,250.256 324.201 C 250.946 325.999,251.188 322.937,251.188 312.400 C 251.188 301.834,250.914 298.427,250.261 300.866 M100.267 301.467 C 99.650 302.084,99.970 323.503,100.600 323.745 C 101.125 323.946,101.200 322.545,101.200 312.587 C 101.200 302.192,101.072 300.662,100.267 301.467 " stroke="none" fill="#582404" fill-rule="evenodd"></path><path id="path8" d="M87.500 23.900 C 94.155 23.961,105.045 23.961,111.700 23.900 C 118.355 23.838,112.910 23.788,99.600 23.788 C 86.290 23.788,80.845 23.838,87.500 23.900 M231.269 23.900 C 248.136 23.958,275.856 23.958,292.869 23.900 C 309.881 23.842,296.080 23.795,262.200 23.795 C 228.320 23.795,214.401 23.842,231.269 23.900 M199.211 24.587 C 198.943 24.909,198.817 25.404,198.931 25.687 C 199.063 26.017,199.148 25.958,199.168 25.520 C 199.186 25.146,199.515 24.656,199.900 24.432 C 200.285 24.208,200.397 24.019,200.149 24.012 C 199.901 24.005,199.479 24.264,199.211 24.587 M324.914 24.900 C 325.401 25.395,325.862 25.659,325.938 25.487 C 326.139 25.028,325.190 24.000,324.565 24.000 C 324.220 24.000,324.344 24.321,324.914 24.900 M350.089 24.623 C 349.600 24.965,349.205 25.550,349.212 25.923 C 349.222 26.490,349.298 26.471,349.678 25.800 C 349.927 25.360,350.327 24.868,350.566 24.706 C 351.423 24.126,374.657 24.346,375.150 24.939 C 375.475 25.331,375.626 42.350,375.700 87.039 L 375.803 148.600 375.901 86.780 C 375.977 39.121,375.890 24.850,375.520 24.480 C 374.717 23.677,351.251 23.809,350.089 24.623 M73.791 38.167 C 73.799 49.171,73.883 50.956,74.400 51.097 C 74.838 51.217,74.867 51.166,74.506 50.910 C 74.136 50.648,73.983 47.400,73.897 37.980 L 73.782 25.400 73.791 38.167 M126.176 37.400 C 126.176 43.560,126.232 46.024,126.299 42.876 C 126.367 39.727,126.367 34.687,126.299 31.676 C 126.231 28.664,126.176 31.240,126.176 37.400 M326.176 37.600 C 326.176 43.870,326.232 46.435,326.299 43.300 C 326.367 40.165,326.367 35.035,326.299 31.900 C 326.232 28.765,326.176 31.330,326.176 37.600 M312.600 51.190 L 323.800 51.400 324.005 75.000 L 324.210 98.600 324.305 75.180 C 324.377 57.390,324.285 51.645,323.920 51.280 C 323.565 50.925,320.562 50.824,312.420 50.890 L 301.400 50.981 312.600 51.190 M123.776 62.800 C 123.776 69.070,123.832 71.635,123.899 68.500 C 123.967 65.365,123.967 60.235,123.899 57.100 C 123.832 53.965,123.776 56.530,123.776 62.800 M226.190 62.700 L 226.200 73.800 237.400 73.810 L 248.600 73.820 237.506 73.704 L 226.413 73.587 226.297 62.594 L 226.181 51.600 226.190 62.700 M300.894 63.077 C 300.801 74.640,300.791 74.761,299.911 75.377 C 299.198 75.877,299.155 76.000,299.697 76.000 C 301.073 76.000,301.215 74.680,301.100 62.915 L 300.987 51.400 300.894 63.077 M73.787 74.089 C 73.678 74.375,73.638 80.007,73.700 86.604 L 73.812 98.600 73.906 86.300 L 74.000 74.000 86.924 74.000 C 97.667 74.000,99.978 74.099,100.624 74.587 C 101.553 75.290,123.600 75.506,123.600 74.812 C 123.600 74.088,74.063 73.369,73.787 74.089 M263.300 76.300 C 269.845 76.361,280.555 76.361,287.100 76.300 C 293.645 76.238,288.290 76.188,275.200 76.188 C 262.110 76.188,256.755 76.238,263.300 76.300 M48.938 99.417 C 48.808 99.757,48.813 100.147,48.951 100.284 C 49.088 100.421,49.200 100.247,49.200 99.896 C 49.200 99.545,49.515 99.176,49.900 99.076 C 50.556 98.904,50.555 98.890,49.887 98.846 C 49.496 98.821,49.068 99.078,48.938 99.417 M274.223 99.689 C 273.694 100.444,273.600 102.317,273.600 112.083 L 273.600 123.587 262.700 123.703 L 251.800 123.819 262.800 123.809 L 273.800 123.800 274.015 111.800 C 274.133 105.200,274.268 99.749,274.315 99.687 C 274.362 99.625,274.805 99.411,275.300 99.212 C 275.954 98.950,276.015 98.844,275.523 98.825 C 275.150 98.811,274.565 99.200,274.223 99.689 M337.497 101.097 L 348.794 101.212 348.902 125.706 L 349.009 150.200 349.005 125.600 L 349.000 101.000 337.600 100.990 L 326.200 100.981 337.497 101.097 M223.693 112.494 L 223.600 123.588 212.100 123.700 L 200.600 123.813 212.113 123.906 C 221.095 123.979,223.668 123.889,223.819 123.494 C 223.926 123.216,223.962 118.131,223.900 112.194 L 223.786 101.400 223.693 112.494 M157.324 123.899 C 160.583 123.967,165.803 123.966,168.924 123.899 C 172.046 123.831,169.380 123.776,163.000 123.777 C 156.620 123.777,154.066 123.832,157.324 123.899 M199.211 124.587 C 198.943 124.909,198.817 125.404,198.931 125.687 C 199.063 126.017,199.148 125.958,199.168 125.520 C 199.186 125.146,199.515 124.656,199.900 124.432 C 200.285 124.208,200.397 124.019,200.149 124.012 C 199.901 124.005,199.479 124.264,199.211 124.587 M176.177 137.000 C 176.177 143.380,176.232 145.934,176.299 142.676 C 176.367 139.417,176.366 134.197,176.299 131.076 C 176.231 127.954,176.176 130.620,176.177 137.000 M326.178 137.600 C 326.178 144.310,326.232 147.055,326.299 143.700 C 326.366 140.345,326.366 134.855,326.299 131.500 C 326.232 128.145,326.178 130.890,326.178 137.600 M126.181 126.506 C 126.074 126.784,126.038 131.869,126.100 137.806 L 126.214 148.600 126.307 137.506 L 126.400 126.413 137.500 126.300 L 148.600 126.187 137.487 126.093 C 128.827 126.021,126.332 126.112,126.181 126.506 M276.181 126.506 C 276.074 126.784,276.038 131.869,276.100 137.806 L 276.214 148.600 276.307 137.506 L 276.400 126.413 287.500 126.300 L 298.600 126.187 287.487 126.093 C 278.827 126.021,276.332 126.112,276.181 126.506 M376.192 186.600 C 376.192 207.060,376.241 215.371,376.300 205.070 C 376.359 194.768,376.359 178.028,376.300 167.870 C 376.240 157.711,376.192 166.140,376.192 186.600 M23.776 162.600 C 23.776 168.760,23.832 171.224,23.899 168.076 C 23.967 164.927,23.967 159.887,23.899 156.876 C 23.831 153.864,23.776 156.440,23.776 162.600 M226.176 162.600 C 226.176 168.760,226.232 171.224,226.299 168.076 C 226.367 164.927,226.367 159.887,226.299 156.876 C 226.231 153.864,226.176 156.440,226.176 162.600 M273.777 163.000 C 273.777 169.380,273.832 171.934,273.899 168.676 C 273.967 165.417,273.966 160.197,273.899 157.076 C 273.831 153.954,273.776 156.620,273.777 163.000 M331.924 173.899 C 335.073 173.967,340.113 173.967,343.124 173.899 C 346.136 173.831,343.560 173.776,337.400 173.776 C 331.240 173.776,328.776 173.832,331.924 173.899 M49.894 176.298 L 73.587 176.406 73.703 187.303 L 73.819 198.200 73.809 187.200 L 73.800 176.200 50.000 176.195 L 26.200 176.190 49.894 176.298 M176.181 176.506 C 176.074 176.784,176.038 181.869,176.100 187.806 L 176.214 198.600 176.307 187.503 L 176.400 176.406 200.100 176.300 L 223.800 176.194 200.087 176.097 C 181.266 176.020,176.335 176.104,176.181 176.506 M281.500 176.299 C 284.855 176.366,290.345 176.366,293.700 176.299 C 297.055 176.232,294.310 176.178,287.600 176.178 C 280.890 176.178,278.145 176.232,281.500 176.299 M323.776 187.400 C 323.776 193.560,323.832 196.024,323.899 192.876 C 323.967 189.727,323.967 184.687,323.899 181.676 C 323.831 178.664,323.776 181.240,323.776 187.400 M199.211 199.387 C 198.381 200.387,198.950 200.651,199.886 199.700 C 200.456 199.121,200.580 198.800,200.235 198.800 C 199.939 198.800,199.479 199.064,199.211 199.387 M224.700 199.212 C 225.195 199.411,225.638 199.625,225.685 199.687 C 225.732 199.749,225.873 205.380,225.997 212.200 L 226.223 224.600 226.311 212.589 C 226.405 199.849,226.260 198.759,224.477 198.825 C 223.985 198.844,224.046 198.950,224.700 199.212 M23.782 224.103 C 23.676 224.380,23.639 230.545,23.700 237.803 L 23.811 251.000 23.906 237.500 L 24.000 224.000 36.724 224.000 C 49.802 224.000,50.374 224.064,50.922 225.600 C 51.096 226.085,51.143 226.070,51.168 225.523 C 51.251 223.742,50.179 223.600,36.698 223.600 C 26.848 223.600,23.931 223.714,23.782 224.103 M87.800 224.003 C 94.620 224.127,100.251 224.268,100.313 224.315 C 100.375 224.362,100.589 224.805,100.788 225.300 C 101.050 225.954,101.156 226.015,101.175 225.523 C 101.241 223.740,100.151 223.595,87.411 223.689 L 75.400 223.777 87.800 224.003 M138.100 223.900 C 144.645 223.961,155.355 223.961,161.900 223.900 C 168.445 223.838,163.090 223.788,150.000 223.788 C 136.910 223.788,131.555 223.838,138.100 223.900 M257.124 223.899 C 260.273 223.967,265.313 223.967,268.324 223.899 C 271.336 223.831,268.760 223.776,262.600 223.776 C 256.440 223.776,253.976 223.832,257.124 223.899 M313.329 223.900 C 319.889 223.962,330.509 223.961,336.929 223.900 C 343.348 223.838,337.980 223.787,325.000 223.788 C 312.020 223.788,306.768 223.838,313.329 223.900 M124.411 224.587 C 123.581 225.587,124.150 225.851,125.086 224.900 C 125.656 224.321,125.780 224.000,125.435 224.000 C 125.139 224.000,124.679 224.264,124.411 224.587 M174.914 224.900 C 175.401 225.395,175.862 225.659,175.938 225.487 C 176.139 225.028,175.190 224.000,174.565 224.000 C 174.220 224.000,174.344 224.321,174.914 224.900 M73.778 237.600 C 73.778 244.310,73.832 247.055,73.899 243.700 C 73.966 240.345,73.966 234.855,73.899 231.500 C 73.832 228.145,73.778 230.890,73.778 237.600 M357.124 226.299 C 360.273 226.367,365.313 226.367,368.324 226.299 C 371.336 226.231,368.760 226.176,362.600 226.176 C 356.440 226.176,353.976 226.232,357.124 226.299 M123.776 237.600 C 123.776 243.870,123.832 246.435,123.899 243.300 C 123.967 240.165,123.967 235.035,123.899 231.900 C 123.832 228.765,123.776 231.330,123.776 237.600 M176.176 237.600 C 176.176 243.870,176.232 246.435,176.299 243.300 C 176.367 240.165,176.367 235.035,176.299 231.900 C 176.232 228.765,176.176 231.330,176.176 237.600 M276.195 250.000 L 276.200 273.800 287.200 273.809 L 298.200 273.819 287.303 273.703 L 276.406 273.587 276.298 249.894 L 276.190 226.200 276.195 250.000 M124.000 249.697 C 124.000 251.135,125.132 251.200,150.000 251.200 C 174.868 251.200,176.000 251.135,176.000 249.697 C 176.000 249.155,175.877 249.198,175.377 249.911 L 174.755 250.800 150.000 250.800 L 125.245 250.800 124.623 249.911 C 124.123 249.198,124.000 249.155,124.000 249.697 M50.978 262.000 C 50.978 268.710,51.032 271.455,51.099 268.100 C 51.166 264.745,51.166 259.255,51.099 255.900 C 51.032 252.545,50.978 255.290,50.978 262.000 M350.978 262.000 C 350.978 268.710,351.032 271.455,351.099 268.100 C 351.166 264.745,351.166 259.255,351.099 255.900 C 351.032 252.545,350.978 255.290,350.978 262.000 M226.177 262.000 C 226.177 268.490,226.232 271.145,226.299 267.900 C 226.366 264.655,226.366 259.345,226.299 256.100 C 226.232 252.855,226.177 255.510,226.177 262.000 M107.324 273.899 C 110.583 273.967,115.803 273.966,118.924 273.899 C 122.046 273.831,119.380 273.776,113.000 273.777 C 106.620 273.777,104.066 273.832,107.324 273.899 M156.300 273.899 C 159.655 273.966,165.145 273.966,168.500 273.899 C 171.855 273.832,169.110 273.778,162.400 273.778 C 155.690 273.778,152.945 273.832,156.300 273.899 M237.400 274.000 L 226.200 274.219 237.276 274.310 C 244.328 274.367,248.443 274.255,248.600 274.000 C 248.736 273.780,248.792 273.641,248.724 273.690 C 248.656 273.740,243.560 273.880,237.400 274.000 M50.400 274.672 C 50.400 274.895,49.995 275.273,49.500 275.512 C 49.005 275.751,48.791 275.958,49.024 275.973 C 49.696 276.016,51.030 274.896,50.699 274.566 C 50.535 274.401,50.400 274.449,50.400 274.672 M350.400 274.672 C 350.400 274.895,349.995 275.273,349.500 275.512 C 349.005 275.751,348.791 275.958,349.024 275.973 C 349.696 276.016,351.030 274.896,350.699 274.566 C 350.535 274.401,350.400 274.449,350.400 274.672 M207.124 276.299 C 210.273 276.367,215.313 276.367,218.324 276.299 C 221.336 276.231,218.760 276.176,212.600 276.176 C 206.440 276.176,203.976 276.232,207.124 276.299 M250.984 276.498 C 250.876 276.779,250.838 282.407,250.900 289.004 L 251.012 301.000 251.106 288.700 L 251.200 276.400 262.394 276.400 L 273.587 276.400 273.703 287.300 L 273.819 298.200 273.809 287.200 L 273.800 276.200 262.490 276.094 C 253.607 276.010,251.138 276.097,250.984 276.498 M307.300 276.299 C 310.545 276.366,315.855 276.366,319.100 276.299 C 322.345 276.232,319.690 276.177,313.200 276.177 C 306.710 276.177,304.055 276.232,307.300 276.299 M224.000 287.481 C 223.890 293.685,223.938 298.623,224.107 298.454 C 224.275 298.285,224.365 293.209,224.306 287.173 L 224.199 276.200 224.000 287.481 M73.788 325.000 C 73.788 337.980,73.838 343.232,73.900 336.671 C 73.962 330.111,73.961 319.491,73.900 313.071 C 73.838 306.652,73.787 312.020,73.788 325.000 M101.546 324.106 C 101.715 324.275,106.881 324.365,113.026 324.306 L 124.200 324.199 112.720 324.000 C 106.405 323.890,101.377 323.938,101.546 324.106 M351.461 324.100 C 351.564 324.265,356.835 324.400,363.175 324.400 C 372.335 324.400,374.794 324.510,375.148 324.937 C 375.462 325.316,375.625 332.657,375.700 349.837 L 375.806 374.200 375.903 349.549 C 375.982 329.559,375.900 324.815,375.473 324.461 C 374.870 323.960,351.154 323.604,351.461 324.100 M250.893 325.200 C 250.893 325.970,250.975 326.285,251.076 325.900 C 251.176 325.515,251.176 324.885,251.076 324.500 C 250.975 324.115,250.893 324.430,250.893 325.200 M125.697 350.251 C 125.618 370.137,125.500 374.785,125.063 375.148 C 124.684 375.462,117.395 375.625,100.363 375.700 L 76.200 375.806 100.651 375.903 C 120.882 375.983,125.180 375.906,125.554 375.455 C 125.882 375.060,125.977 368.164,125.900 350.355 L 125.794 325.800 125.697 350.251 M312.594 326.297 L 323.587 326.413 323.704 337.506 L 323.820 348.600 323.810 337.400 L 323.800 326.200 312.700 326.190 L 301.600 326.181 312.594 326.297 M173.782 349.304 C 173.675 349.581,173.639 355.386,173.700 362.204 L 173.812 374.600 173.906 361.933 C 173.978 352.246,174.118 349.219,174.500 349.065 C 174.892 348.907,174.889 348.856,174.487 348.832 C 174.206 348.814,173.888 349.027,173.782 349.304 M299.211 349.387 C 298.381 350.387,298.950 350.651,299.886 349.700 C 300.456 349.121,300.580 348.800,300.235 348.800 C 299.939 348.800,299.479 349.064,299.211 349.387 M48.825 374.477 C 48.758 376.272,49.805 376.405,63.189 376.311 L 75.800 376.222 62.800 375.997 C 55.650 375.873,49.749 375.733,49.687 375.686 C 49.625 375.639,49.411 375.195,49.212 374.700 C 48.950 374.046,48.844 373.985,48.825 374.477 M250.322 374.697 L 250.077 375.594 225.538 375.700 L 201.000 375.806 225.400 375.897 C 249.928 375.988,251.008 375.931,250.723 374.552 C 250.586 373.887,250.539 373.904,250.322 374.697 M298.825 374.477 C 298.758 376.272,299.805 376.405,313.189 376.311 L 325.800 376.222 312.800 375.997 C 305.650 375.873,299.749 375.733,299.687 375.686 C 299.625 375.639,299.411 375.195,299.212 374.700 C 298.950 374.046,298.844 373.985,298.825 374.477 M338.329 375.900 C 344.999 375.961,355.799 375.961,362.329 375.900 C 368.858 375.838,363.400 375.788,350.200 375.788 C 337.000 375.788,331.658 375.838,338.329 375.900 M181.700 376.299 C 185.165 376.366,190.835 376.366,194.300 376.299 C 197.765 376.233,194.930 376.178,188.000 376.178 C 181.070 376.178,178.235 376.233,181.700 376.299 " stroke="none" fill="#1c2804" fill-rule="evenodd"></path></g></svg>